<svg version="1.1" viewBox="0.0 0.0 960.0 540.0" fill="none" stroke="none" stroke-linecap="square" stroke-miterlimit="10" xmlns:xlink="http://www.w3.org/1999/xlink" xmlns="http://www.w3.org/2000/svg"><clipPath id="p.0"><path d="m0 0l960.0 0l0 540.0l-960.0 0l0 -540.0z" clip-rule="nonzero"/></clipPath><g clip-path="url(#p.0)"><path fill="#ffffff" d="m0 0l960.0 0l0 540.0l-960.0 0z" fill-rule="evenodd"/><path fill="#f4cccc" d="m203.2126 133.91602l282.6142 0l0 272.50394l-282.6142 0z" fill-rule="evenodd"/><path stroke="#595959" stroke-width="1.0" stroke-linejoin="round" stroke-linecap="butt" d="m203.2126 133.91602l282.6142 0l0 272.50394l-282.6142 0z" fill-rule="evenodd"/><g filter="url(#shadowFilter-p.1)"><use xlink:href="#p.1" transform="matrix(1.0 0.0 0.0 1.0 2.8284271320333003 2.8284271320333003)"/></g><defs><filter id="shadowFilter-p.1" filterUnits="userSpaceOnUse"><feGaussianBlur in="SourceAlpha" stdDeviation="1.7777777" result="blur"/><feComponentTransfer in="blur" color-interpolation-filters="sRGB"><feFuncR type="linear" slope="0" intercept="0.0"/><feFuncG type="linear" slope="0" intercept="0.0"/><feFuncB type="linear" slope="0" intercept="0.0"/><feFuncA type="linear" slope="0.4" intercept="0"/></feComponentTransfer></filter></defs><g id="p.1"><path fill="#56b2af" d="m535.47504 213.21298l209.6352 0l0 44.54068l-209.6352 0z" fill-rule="evenodd"/><path stroke="#ffc000" stroke-width="1.3333333333333333" stroke-miterlimit="800.0" stroke-linecap="butt" d="m535.47504 213.21298l209.6352 0l0 44.54068l-209.6352 0z" fill-rule="evenodd"/><path fill="#00495f" d="m549.1036 223.8902q0.859375 0 1.6875 0.453125q0.828125 0.4375 1.28125 1.265625q0.46875 0.828125 0.46875 1.71875q0 1.421875 -1.015625 2.4375q-1.0 1.0 -2.421875 1.0q-1.4375 0 -2.453125 -1.0q-1.0 -1.015625 -1.0 -2.4375q0 -0.90625 0.453125 -1.71875q0.46875 -0.828125 1.296875 -1.265625q0.828125 -0.453125 1.703125 -0.453125z" fill-rule="nonzero"/><path fill="#00495f" d="m566.2364 230.06207l4.640625 0l0 1.78125l-6.78125 0l0 -11.5625l2.140625 0l0 9.78125zm9.2178955 -6.546875q0.921875 0 1.65625 0.296875q0.75 0.28125 1.28125 0.828125q0.53125 0.546875 0.8125 1.328125q0.296875 0.78125 0.296875 1.75q0 0.984375 -0.296875 1.765625q-0.28125 0.78125 -0.8125 1.34375q-0.53125 0.546875 -1.28125 0.84375q-0.734375 0.296875 -1.65625 0.296875q-0.921875 0 -1.671875 -0.296875q-0.75 -0.296875 -1.28125 -0.84375q-0.53125 -0.5625 -0.828125 -1.34375q-0.296875 -0.78125 -0.296875 -1.765625q0 -0.96875 0.296875 -1.75q0.296875 -0.78125 0.828125 -1.328125q0.53125 -0.546875 1.28125 -0.828125q0.75 -0.296875 1.671875 -0.296875zm0 6.921875q1.015625 0 1.5 -0.6875q0.5 -0.6875 0.5 -2.015625q0 -1.328125 -0.5 -2.015625q-0.484375 -0.703125 -1.5 -0.703125q-1.046875 0 -1.546875 0.703125q-0.484375 0.703125 -0.484375 2.015625q0 1.328125 0.484375 2.015625q0.5 0.6875 1.546875 0.6875zm9.095886 -6.921875q0.921875 0 1.65625 0.296875q0.75 0.28125 1.28125 0.828125q0.53125 0.546875 0.8125 1.328125q0.296875 0.78125 0.296875 1.75q0 0.984375 -0.296875 1.765625q-0.28125 0.78125 -0.8125 1.34375q-0.53125 0.546875 -1.28125 0.84375q-0.734375 0.296875 -1.65625 0.296875q-0.921875 0 -1.671875 -0.296875q-0.75 -0.296875 -1.28125 -0.84375q-0.53125 -0.5625 -0.828125 -1.34375q-0.296875 -0.78125 -0.296875 -1.765625q0 -0.96875 0.296875 -1.75q0.296875 -0.78125 0.828125 -1.328125q0.53125 -0.546875 1.28125 -0.828125q0.75 -0.296875 1.671875 -0.296875zm0 6.921875q1.015625 0 1.5 -0.6875q0.5 -0.6875 0.5 -2.015625q0 -1.328125 -0.5 -2.015625q-0.484375 -0.703125 -1.5 -0.703125q-1.046875 0 -1.546875 0.703125q-0.484375 0.703125 -0.484375 2.015625q0 1.328125 0.484375 2.015625q0.5 0.6875 1.546875 0.6875zm5.595886 4.09375l0 -10.890625l1.203125 0q0.1875 0 0.328125 0.09375q0.140625 0.078125 0.171875 0.265625l0.15625 0.75q0.5 -0.5625 1.140625 -0.90625q0.65625 -0.359375 1.515625 -0.359375q0.671875 0 1.21875 0.28125q0.5625 0.28125 0.96875 0.8125q0.40625 0.53125 0.625 1.3125q0.21875 0.78125 0.21875 1.78125q0 0.921875 -0.25 1.703125q-0.25 0.78125 -0.71875 1.359375q-0.453125 0.578125 -1.109375 0.90625q-0.640625 0.328125 -1.453125 0.328125q-0.6875 0 -1.171875 -0.203125q-0.484375 -0.21875 -0.875 -0.609375l0 3.375l-1.96875 0zm3.828125 -9.484375q-0.609375 0 -1.046875 0.265625q-0.4375 0.25 -0.8125 0.71875l0 3.6875q0.34375 0.40625 0.734375 0.578125q0.390625 0.15625 0.84375 0.15625q0.453125 0 0.8125 -0.15625q0.375 -0.171875 0.625 -0.515625q0.25 -0.34375 0.375 -0.859375q0.140625 -0.53125 0.140625 -1.25q0 -0.71875 -0.125 -1.21875q-0.109375 -0.5 -0.328125 -0.8125q-0.203125 -0.3125 -0.515625 -0.453125q-0.3125 -0.140625 -0.703125 -0.140625zm10.838928 6.796875l-2.15625 0l0 -11.5625l2.15625 0l0 11.5625zm2.4927368 0l0 -8.203125l1.203125 0q0.375 0 0.5 0.359375l0.140625 0.640625q0.25 -0.25 0.515625 -0.453125q0.28125 -0.21875 0.578125 -0.359375q0.3125 -0.15625 0.671875 -0.234375q0.359375 -0.078125 0.765625 -0.078125q0.671875 0 1.1875 0.234375q0.53125 0.21875 0.875 0.625q0.34375 0.40625 0.515625 0.984375q0.1875 0.578125 0.1875 1.265625l0 5.21875l-1.96875 0l0 -5.21875q0 -0.75 -0.359375 -1.15625q-0.34375 -0.421875 -1.03125 -0.421875q-0.515625 0 -0.96875 0.234375q-0.4375 0.234375 -0.84375 0.625l0 5.9375l-1.96875 0zm11.783386 0.125q-1.0625 0 -1.640625 -0.59375q-0.578125 -0.609375 -0.578125 -1.671875l0 -4.59375l-0.828125 0q-0.15625 0 -0.28125 -0.09375q-0.109375 -0.109375 -0.109375 -0.3125l0 -0.78125l1.3125 -0.21875l0.421875 -2.25q0.03125 -0.15625 0.140625 -0.234375q0.125 -0.09375 0.296875 -0.09375l1.03125 0l0 2.578125l2.15625 0l0 1.40625l-2.15625 0l0 4.453125q0 0.390625 0.1875 0.609375q0.1875 0.203125 0.515625 0.203125q0.1875 0 0.296875 -0.03125q0.125 -0.046875 0.21875 -0.09375q0.09375 -0.046875 0.15625 -0.09375q0.078125 -0.046875 0.15625 -0.046875q0.09375 0 0.140625 0.046875q0.0625 0.046875 0.125 0.125l0.59375 0.96875q-0.4375 0.359375 -1.0 0.546875q-0.546875 0.171875 -1.15625 0.171875zm6.8950195 -8.453125q0.765625 0 1.421875 0.25q0.65625 0.234375 1.125 0.71875q0.46875 0.46875 0.734375 1.171875q0.265625 0.6875 0.265625 1.578125q0 0.21875 -0.03125 0.375q-0.015625 0.140625 -0.0625 0.234375q-0.046875 0.078125 -0.140625 0.109375q-0.078125 0.03125 -0.21875 0.03125l-5.078125 0q0.09375 1.265625 0.6875 1.859375q0.59375 0.59375 1.5625 0.59375q0.484375 0 0.828125 -0.109375q0.34375 -0.109375 0.609375 -0.25q0.265625 -0.140625 0.453125 -0.25q0.203125 -0.109375 0.375 -0.109375q0.125 0 0.203125 0.046875q0.09375 0.046875 0.171875 0.140625l0.5625 0.71875q-0.328125 0.375 -0.734375 0.640625q-0.40625 0.265625 -0.859375 0.421875q-0.4375 0.140625 -0.90625 0.203125q-0.453125 0.078125 -0.875 0.078125q-0.859375 0 -1.59375 -0.28125q-0.734375 -0.296875 -1.28125 -0.84375q-0.546875 -0.5625 -0.859375 -1.375q-0.3125 -0.828125 -0.3125 -1.90625q0 -0.84375 0.265625 -1.578125q0.28125 -0.734375 0.78125 -1.28125q0.515625 -0.5625 1.25 -0.875q0.734375 -0.3125 1.65625 -0.3125zm0.03125 1.40625q-0.859375 0 -1.359375 0.5q-0.484375 0.484375 -0.609375 1.375l3.703125 0q0 -0.390625 -0.109375 -0.71875q-0.09375 -0.34375 -0.3125 -0.59375q-0.21875 -0.265625 -0.546875 -0.40625q-0.328125 -0.15625 -0.765625 -0.15625zm5.130005 6.921875l0 -8.203125l1.15625 0q0.296875 0 0.421875 0.109375q0.125 0.109375 0.15625 0.375l0.125 1.0q0.4375 -0.765625 1.03125 -1.203125q0.59375 -0.4375 1.328125 -0.4375q0.609375 0 1.0 0.28125l-0.25 1.484375q-0.015625 0.140625 -0.109375 0.203125q-0.078125 0.0625 -0.203125 0.0625q-0.125 0 -0.34375 -0.0625q-0.203125 -0.0625 -0.546875 -0.0625q-0.609375 0 -1.046875 0.34375q-0.4375 0.34375 -0.75 1.0l0 5.109375l-1.96875 0zm12.301575 -6.46875q-0.09375 0.109375 -0.1875 0.171875q-0.078125 0.0625 -0.234375 0.0625q-0.15625 0 -0.296875 -0.09375q-0.140625 -0.09375 -0.34375 -0.203125q-0.203125 -0.109375 -0.484375 -0.203125q-0.265625 -0.09375 -0.671875 -0.09375q-0.515625 0 -0.921875 0.1875q-0.390625 0.1875 -0.65625 0.546875q-0.25 0.34375 -0.375 0.84375q-0.125 0.5 -0.125 1.125q0 0.65625 0.140625 1.171875q0.140625 0.515625 0.40625 0.859375q0.265625 0.34375 0.640625 0.53125q0.375 0.171875 0.84375 0.171875q0.46875 0 0.75 -0.109375q0.296875 -0.109375 0.5 -0.25q0.203125 -0.140625 0.34375 -0.25q0.15625 -0.125 0.34375 -0.125q0.234375 0 0.359375 0.1875l0.5625 0.71875q-0.328125 0.375 -0.71875 0.640625q-0.375 0.265625 -0.796875 0.421875q-0.40625 0.140625 -0.84375 0.203125q-0.4375 0.078125 -0.875 0.078125q-0.75 0 -1.421875 -0.28125q-0.671875 -0.296875 -1.171875 -0.828125q-0.5 -0.546875 -0.796875 -1.328125q-0.296875 -0.796875 -0.296875 -1.8125q0 -0.90625 0.265625 -1.671875q0.265625 -0.765625 0.765625 -1.328125q0.5 -0.578125 1.234375 -0.890625q0.75 -0.3125 1.71875 -0.3125q0.921875 0 1.609375 0.296875q0.703125 0.28125 1.25 0.84375l-0.515625 0.71875zm1.866272 6.46875l0 -11.890625l1.96875 0l0 4.578125q0.484375 -0.46875 1.046875 -0.734375q0.578125 -0.28125 1.359375 -0.28125q0.671875 0 1.1875 0.234375q0.53125 0.21875 0.875 0.625q0.34375 0.40625 0.515625 0.984375q0.1875 0.578125 0.1875 1.265625l0 5.21875l-1.96875 0l0 -5.21875q0 -0.75 -0.359375 -1.15625q-0.34375 -0.421875 -1.03125 -0.421875q-0.515625 0 -0.96875 0.234375q-0.4375 0.234375 -0.84375 0.625l0 5.9375l-1.96875 0zm15.517761 0l-0.890625 0q-0.28125 0 -0.4375 -0.078125q-0.15625 -0.09375 -0.234375 -0.34375l-0.171875 -0.59375q-0.3125 0.28125 -0.625 0.5q-0.296875 0.21875 -0.625 0.359375q-0.3125 0.140625 -0.671875 0.203125q-0.359375 0.078125 -0.796875 0.078125q-0.515625 0 -0.96875 -0.140625q-0.4375 -0.140625 -0.75 -0.421875q-0.3125 -0.28125 -0.5 -0.6875q-0.171875 -0.421875 -0.171875 -0.96875q0 -0.46875 0.25 -0.921875q0.25 -0.453125 0.8125 -0.8125q0.5625 -0.359375 1.5 -0.59375q0.953125 -0.25 2.359375 -0.28125l0 -0.484375q0 -0.828125 -0.359375 -1.21875q-0.34375 -0.390625 -1.0 -0.390625q-0.484375 0 -0.8125 0.109375q-0.3125 0.109375 -0.546875 0.25q-0.234375 0.140625 -0.4375 0.25q-0.203125 0.109375 -0.4375 0.109375q-0.203125 0 -0.34375 -0.09375q-0.140625 -0.109375 -0.234375 -0.265625l-0.359375 -0.625q1.421875 -1.296875 3.421875 -1.296875q0.71875 0 1.28125 0.234375q0.5625 0.234375 0.953125 0.65625q0.390625 0.421875 0.59375 1.015625q0.203125 0.578125 0.203125 1.265625l0 5.1875zm-3.84375 -1.234375q0.3125 0 0.5625 -0.046875q0.265625 -0.0625 0.484375 -0.171875q0.234375 -0.109375 0.4375 -0.265625q0.21875 -0.171875 0.4375 -0.40625l0 -1.375q-0.859375 0.03125 -1.453125 0.140625q-0.578125 0.109375 -0.9375 0.28125q-0.34375 0.171875 -0.5 0.390625q-0.140625 0.21875 -0.140625 0.484375q0 0.515625 0.3125 0.75q0.3125 0.21875 0.796875 0.21875zm5.7977295 1.234375l0 -8.203125l1.203125 0q0.375 0 0.5 0.359375l0.140625 0.640625q0.25 -0.25 0.515625 -0.453125q0.28125 -0.21875 0.578125 -0.359375q0.3125 -0.15625 0.671875 -0.234375q0.359375 -0.078125 0.765625 -0.078125q0.671875 0 1.1875 0.234375q0.53125 0.21875 0.875 0.625q0.34375 0.40625 0.515625 0.984375q0.1875 0.578125 0.1875 1.265625l0 5.21875l-1.96875 0l0 -5.21875q0 -0.75 -0.359375 -1.15625q-0.34375 -0.421875 -1.03125 -0.421875q-0.515625 0 -0.96875 0.234375q-0.4375 0.234375 -0.84375 0.625l0 5.9375l-1.96875 0zm11.924011 -8.359375q0.53125 0 1.0 0.109375q0.46875 0.109375 0.84375 0.328125l2.359375 0l0 0.734375q0 0.171875 -0.09375 0.28125q-0.09375 0.109375 -0.328125 0.140625l-0.734375 0.140625q0.078125 0.203125 0.125 0.4375q0.046875 0.234375 0.046875 0.484375q0 0.609375 -0.25 1.109375q-0.25 0.484375 -0.671875 0.828125q-0.421875 0.34375 -1.015625 0.53125q-0.59375 0.1875 -1.28125 0.1875q-0.453125 0 -0.90625 -0.078125q-0.375 0.234375 -0.375 0.515625q0 0.25 0.21875 0.375q0.234375 0.109375 0.609375 0.15625q0.375 0.046875 0.84375 0.0625q0.46875 0 0.96875 0.046875q0.5 0.046875 0.96875 0.140625q0.46875 0.09375 0.84375 0.3125q0.375 0.21875 0.59375 0.59375q0.234375 0.375 0.234375 0.953125q0 0.546875 -0.265625 1.046875q-0.265625 0.515625 -0.78125 0.921875q-0.515625 0.40625 -1.25 0.640625q-0.734375 0.25 -1.671875 0.25q-0.9375 0 -1.625 -0.1875q-0.6875 -0.171875 -1.140625 -0.484375q-0.453125 -0.296875 -0.6875 -0.6875q-0.21875 -0.390625 -0.21875 -0.8125q0 -0.578125 0.34375 -0.96875q0.359375 -0.390625 0.984375 -0.625q-0.296875 -0.171875 -0.484375 -0.4375q-0.1875 -0.28125 -0.1875 -0.734375q0 -0.1875 0.0625 -0.375q0.078125 -0.203125 0.203125 -0.390625q0.125 -0.203125 0.328125 -0.375q0.203125 -0.171875 0.46875 -0.296875q-0.609375 -0.34375 -0.96875 -0.890625q-0.359375 -0.5625 -0.359375 -1.328125q0 -0.59375 0.234375 -1.078125q0.25 -0.5 0.6875 -0.84375q0.4375 -0.359375 1.03125 -0.546875q0.59375 -0.1875 1.296875 -0.1875zm2.171875 8.734375q0 -0.25 -0.140625 -0.390625q-0.140625 -0.15625 -0.390625 -0.234375q-0.25 -0.09375 -0.59375 -0.125q-0.328125 -0.046875 -0.703125 -0.0625q-0.359375 -0.03125 -0.765625 -0.046875q-0.390625 -0.015625 -0.75 -0.0625q-0.34375 0.171875 -0.546875 0.4375q-0.203125 0.25 -0.203125 0.578125q0 0.21875 0.109375 0.40625q0.109375 0.1875 0.34375 0.3125q0.234375 0.140625 0.609375 0.21875q0.375 0.078125 0.921875 0.078125q0.546875 0 0.9375 -0.09375q0.40625 -0.078125 0.671875 -0.234375q0.265625 -0.140625 0.375 -0.34375q0.125 -0.203125 0.125 -0.4375zm-2.171875 -4.671875q0.375 0 0.640625 -0.09375q0.28125 -0.109375 0.453125 -0.28125q0.1875 -0.1875 0.28125 -0.4375q0.09375 -0.25 0.09375 -0.53125q0 -0.609375 -0.375 -0.96875q-0.359375 -0.359375 -1.09375 -0.359375q-0.71875 0 -1.09375 0.359375q-0.359375 0.359375 -0.359375 0.96875q0 0.28125 0.09375 0.53125q0.09375 0.25 0.265625 0.4375q0.1875 0.171875 0.453125 0.28125q0.28125 0.09375 0.640625 0.09375zm8.842407 -4.03125q0.765625 0 1.421875 0.25q0.65625 0.234375 1.125 0.71875q0.46875 0.46875 0.734375 1.171875q0.265625 0.6875 0.265625 1.578125q0 0.21875 -0.03125 0.375q-0.015625 0.140625 -0.0625 0.234375q-0.046875 0.078125 -0.140625 0.109375q-0.078125 0.03125 -0.21875 0.03125l-5.078125 0q0.09375 1.265625 0.6875 1.859375q0.59375 0.59375 1.5625 0.59375q0.484375 0 0.828125 -0.109375q0.34375 -0.109375 0.609375 -0.25q0.265625 -0.140625 0.453125 -0.25q0.203125 -0.109375 0.375 -0.109375q0.125 0 0.203125 0.046875q0.09375 0.046875 0.171875 0.140625l0.5625 0.71875q-0.328125 0.375 -0.734375 0.640625q-0.40625 0.265625 -0.859375 0.421875q-0.4375 0.140625 -0.90625 0.203125q-0.453125 0.078125 -0.875 0.078125q-0.859375 0 -1.59375 -0.28125q-0.734375 -0.296875 -1.28125 -0.84375q-0.546875 -0.5625 -0.859375 -1.375q-0.3125 -0.828125 -0.3125 -1.90625q0 -0.84375 0.265625 -1.578125q0.28125 -0.734375 0.78125 -1.28125q0.515625 -0.5625 1.25 -0.875q0.734375 -0.3125 1.65625 -0.3125zm0.03125 1.40625q-0.859375 0 -1.359375 0.5q-0.484375 0.484375 -0.609375 1.375l3.703125 0q0 -0.390625 -0.109375 -0.71875q-0.09375 -0.34375 -0.3125 -0.59375q-0.21875 -0.265625 -0.546875 -0.40625q-0.328125 -0.15625 -0.765625 -0.15625z" fill-rule="nonzero"/><path fill="#00495f" d="m549.1036 242.8902q0.859375 0 1.6875 0.453125q0.828125 0.4375 1.28125 1.265625q0.46875 0.828125 0.46875 1.71875q0 1.421875 -1.015625 2.4375q-1.0 1.0 -2.421875 1.0q-1.4375 0 -2.453125 -1.0q-1.0 -1.015625 -1.0 -2.4375q0 -0.90625 0.453125 -1.71875q0.46875 -0.828125 1.296875 -1.265625q0.828125 -0.453125 1.703125 -0.453125z" fill-rule="nonzero"/><path fill="#00495f" d="m566.51764 250.84332l-2.15625 0l0 -11.5625l2.15625 0l0 11.5625zm4.820801 -4.515625l0 4.515625l-2.15625 0l0 -11.5625l3.53125 0q1.1875 0 2.03125 0.25q0.84375 0.234375 1.375 0.671875q0.546875 0.4375 0.796875 1.0625q0.25 0.609375 0.25 1.34375q0 0.578125 -0.171875 1.109375q-0.171875 0.515625 -0.5 0.9375q-0.3125 0.421875 -0.796875 0.75q-0.46875 0.3125 -1.078125 0.5q0.40625 0.234375 0.703125 0.671875l2.890625 4.265625l-1.9375 0q-0.265625 0 -0.46875 -0.109375q-0.203125 -0.109375 -0.328125 -0.328125l-2.4375 -3.703125q-0.140625 -0.203125 -0.3125 -0.28125q-0.15625 -0.09375 -0.46875 -0.09375l-0.921875 0zm0 -1.546875l1.34375 0q0.609375 0 1.0625 -0.15625q0.453125 -0.15625 0.734375 -0.421875q0.296875 -0.265625 0.4375 -0.625q0.15625 -0.375 0.15625 -0.8125q0 -0.875 -0.59375 -1.34375q-0.578125 -0.484375 -1.765625 -0.484375l-1.375 0l0 3.84375zm21.614685 0.28125q0 1.265625 -0.421875 2.328125q-0.421875 1.0625 -1.1875 1.84375q-0.765625 0.765625 -1.859375 1.1875q-1.078125 0.421875 -2.390625 0.421875l-4.40625 0l0 -11.5625l4.40625 0q1.3125 0 2.390625 0.421875q1.09375 0.421875 1.859375 1.1875q0.765625 0.765625 1.1875 1.828125q0.421875 1.0625 0.421875 2.34375zm-2.203125 0q0 -0.953125 -0.25 -1.703125q-0.25 -0.765625 -0.734375 -1.28125q-0.46875 -0.53125 -1.140625 -0.8125q-0.671875 -0.28125 -1.53125 -0.28125l-2.234375 0l0 8.140625l2.234375 0q0.859375 0 1.53125 -0.265625q0.671875 -0.28125 1.140625 -0.796875q0.484375 -0.53125 0.734375 -1.28125q0.25 -0.765625 0.25 -1.71875zm7.178589 -2.546875q0.765625 0 1.421875 0.25q0.65625 0.234375 1.125 0.71875q0.46875 0.46875 0.734375 1.171875q0.265625 0.6875 0.265625 1.578125q0 0.21875 -0.03125 0.375q-0.015625 0.140625 -0.0625 0.234375q-0.046875 0.078125 -0.140625 0.109375q-0.078125 0.03125 -0.21875 0.03125l-5.078125 0q0.09375 1.265625 0.6875 1.859375q0.59375 0.59375 1.5625 0.59375q0.484375 0 0.828125 -0.109375q0.34375 -0.109375 0.609375 -0.25q0.265625 -0.140625 0.453125 -0.25q0.203125 -0.109375 0.375 -0.109375q0.125 0 0.203125 0.046875q0.09375 0.046875 0.171875 0.140625l0.5625 0.71875q-0.328125 0.375 -0.734375 0.640625q-0.40625 0.265625 -0.859375 0.421875q-0.4375 0.140625 -0.90625 0.203125q-0.453125 0.078125 -0.875 0.078125q-0.859375 0 -1.59375 -0.28125q-0.734375 -0.296875 -1.28125 -0.84375q-0.546875 -0.5625 -0.859375 -1.375q-0.3125 -0.828125 -0.3125 -1.90625q0 -0.84375 0.265625 -1.578125q0.28125 -0.734375 0.78125 -1.28125q0.515625 -0.5625 1.25 -0.875q0.734375 -0.3125 1.65625 -0.3125zm0.03125 1.40625q-0.859375 0 -1.359375 0.5q-0.484375 0.484375 -0.609375 1.375l3.703125 0q0 -0.390625 -0.109375 -0.71875q-0.09375 -0.34375 -0.3125 -0.59375q-0.21875 -0.265625 -0.546875 -0.40625q-0.328125 -0.15625 -0.765625 -0.15625zm9.98938 0.3125q-0.078125 0.125 -0.171875 0.1875q-0.078125 0.046875 -0.21875 0.046875q-0.140625 0 -0.3125 -0.078125q-0.15625 -0.078125 -0.375 -0.171875q-0.21875 -0.109375 -0.5 -0.1875q-0.265625 -0.078125 -0.640625 -0.078125q-0.578125 0 -0.921875 0.25q-0.328125 0.234375 -0.328125 0.640625q0 0.265625 0.171875 0.453125q0.171875 0.171875 0.453125 0.3125q0.28125 0.125 0.640625 0.234375q0.359375 0.109375 0.734375 0.25q0.375 0.125 0.734375 0.296875q0.359375 0.15625 0.640625 0.40625q0.296875 0.25 0.46875 0.609375q0.171875 0.34375 0.171875 0.84375q0 0.578125 -0.21875 1.078125q-0.21875 0.5 -0.640625 0.875q-0.40625 0.359375 -1.03125 0.5625q-0.609375 0.203125 -1.390625 0.203125q-0.421875 0 -0.828125 -0.078125q-0.40625 -0.078125 -0.78125 -0.203125q-0.375 -0.140625 -0.6875 -0.3125q-0.3125 -0.1875 -0.546875 -0.40625l0.453125 -0.75q0.078125 -0.140625 0.203125 -0.203125q0.125 -0.078125 0.296875 -0.078125q0.1875 0 0.34375 0.109375q0.171875 0.09375 0.390625 0.21875q0.21875 0.109375 0.5 0.21875q0.296875 0.109375 0.75 0.109375q0.34375 0 0.59375 -0.078125q0.265625 -0.09375 0.421875 -0.234375q0.171875 -0.140625 0.234375 -0.3125q0.078125 -0.1875 0.078125 -0.375q0 -0.28125 -0.171875 -0.46875q-0.171875 -0.1875 -0.453125 -0.3125q-0.28125 -0.140625 -0.65625 -0.25q-0.359375 -0.109375 -0.734375 -0.234375q-0.375 -0.125 -0.75 -0.296875q-0.359375 -0.171875 -0.640625 -0.4375q-0.28125 -0.265625 -0.453125 -0.640625q-0.171875 -0.390625 -0.171875 -0.9375q0 -0.5 0.1875 -0.953125q0.203125 -0.46875 0.59375 -0.796875q0.390625 -0.34375 0.96875 -0.546875q0.578125 -0.203125 1.34375 -0.203125q0.84375 0 1.53125 0.28125q0.703125 0.265625 1.171875 0.734375l-0.453125 0.703125zm4.2263184 -1.59375l0 8.203125l-1.96875 0l0 -8.203125l1.96875 0zm0.296875 -2.390625q0 0.25 -0.109375 0.484375q-0.09375 0.21875 -0.265625 0.390625q-0.171875 0.15625 -0.40625 0.265625q-0.234375 0.09375 -0.5 0.09375q-0.25 0 -0.484375 -0.09375q-0.21875 -0.109375 -0.390625 -0.265625q-0.171875 -0.171875 -0.28125 -0.390625q-0.09375 -0.234375 -0.09375 -0.484375q0 -0.265625 0.09375 -0.5q0.109375 -0.234375 0.28125 -0.390625q0.171875 -0.171875 0.390625 -0.265625q0.234375 -0.109375 0.484375 -0.109375q0.265625 0 0.5 0.109375q0.234375 0.09375 0.40625 0.265625q0.171875 0.15625 0.265625 0.390625q0.109375 0.234375 0.109375 0.5zm4.7734375 2.234375q0.53125 0 1.0 0.109375q0.46875 0.109375 0.84375 0.328125l2.359375 0l0 0.734375q0 0.171875 -0.09375 0.28125q-0.09375 0.109375 -0.328125 0.140625l-0.734375 0.140625q0.078125 0.203125 0.125 0.4375q0.046875 0.234375 0.046875 0.484375q0 0.609375 -0.25 1.109375q-0.25 0.484375 -0.671875 0.828125q-0.421875 0.34375 -1.015625 0.53125q-0.59375 0.1875 -1.28125 0.1875q-0.453125 0 -0.90625 -0.078125q-0.375 0.234375 -0.375 0.515625q0 0.25 0.21875 0.375q0.234375 0.109375 0.609375 0.15625q0.375 0.046875 0.84375 0.0625q0.46875 0 0.96875 0.046875q0.5 0.046875 0.96875 0.140625q0.46875 0.09375 0.84375 0.3125q0.375 0.21875 0.59375 0.59375q0.234375 0.375 0.234375 0.953125q0 0.546875 -0.265625 1.046875q-0.265625 0.515625 -0.78125 0.921875q-0.515625 0.40625 -1.25 0.640625q-0.734375 0.25 -1.671875 0.25q-0.9375 0 -1.625 -0.1875q-0.6875 -0.171875 -1.140625 -0.484375q-0.453125 -0.296875 -0.6875 -0.6875q-0.21875 -0.390625 -0.21875 -0.8125q0 -0.578125 0.34375 -0.96875q0.359375 -0.390625 0.984375 -0.625q-0.296875 -0.171875 -0.484375 -0.4375q-0.1875 -0.28125 -0.1875 -0.734375q0 -0.1875 0.0625 -0.375q0.078125 -0.203125 0.203125 -0.390625q0.125 -0.203125 0.328125 -0.375q0.203125 -0.171875 0.46875 -0.296875q-0.609375 -0.34375 -0.96875 -0.890625q-0.359375 -0.5625 -0.359375 -1.328125q0 -0.59375 0.234375 -1.078125q0.25 -0.5 0.6875 -0.84375q0.4375 -0.359375 1.03125 -0.546875q0.59375 -0.1875 1.296875 -0.1875zm2.171875 8.734375q0 -0.25 -0.140625 -0.390625q-0.140625 -0.15625 -0.390625 -0.234375q-0.25 -0.09375 -0.59375 -0.125q-0.328125 -0.046875 -0.703125 -0.0625q-0.359375 -0.03125 -0.765625 -0.046875q-0.390625 -0.015625 -0.75 -0.0625q-0.34375 0.171875 -0.546875 0.4375q-0.203125 0.25 -0.203125 0.578125q0 0.21875 0.109375 0.40625q0.109375 0.1875 0.34375 0.3125q0.234375 0.140625 0.609375 0.21875q0.375 0.078125 0.921875 0.078125q0.546875 0 0.9375 -0.09375q0.40625 -0.078125 0.671875 -0.234375q0.265625 -0.140625 0.375 -0.34375q0.125 -0.203125 0.125 -0.4375zm-2.171875 -4.671875q0.375 0 0.640625 -0.09375q0.28125 -0.109375 0.453125 -0.28125q0.1875 -0.1875 0.28125 -0.4375q0.09375 -0.25 0.09375 -0.53125q0 -0.609375 -0.375 -0.96875q-0.359375 -0.359375 -1.09375 -0.359375q-0.71875 0 -1.09375 0.359375q-0.359375 0.359375 -0.359375 0.96875q0 0.28125 0.09375 0.53125q0.09375 0.25 0.265625 0.4375q0.1875 0.171875 0.453125 0.28125q0.28125 0.09375 0.640625 0.09375zm5.451782 4.296875l0 -8.203125l1.203125 0q0.375 0 0.5 0.359375l0.140625 0.640625q0.25 -0.25 0.515625 -0.453125q0.28125 -0.21875 0.578125 -0.359375q0.3125 -0.15625 0.671875 -0.234375q0.359375 -0.078125 0.765625 -0.078125q0.671875 0 1.1875 0.234375q0.53125 0.21875 0.875 0.625q0.34375 0.40625 0.515625 0.984375q0.1875 0.578125 0.1875 1.265625l0 5.21875l-1.96875 0l0 -5.21875q0 -0.75 -0.359375 -1.15625q-0.34375 -0.421875 -1.03125 -0.421875q-0.515625 0 -0.96875 0.234375q-0.4375 0.234375 -0.84375 0.625l0 5.9375l-1.96875 0zm23.386963 -5.78125q0 1.265625 -0.421875 2.359375q-0.421875 1.078125 -1.203125 1.875q-0.765625 0.78125 -1.84375 1.234375q-1.078125 0.4375 -2.390625 0.4375q-1.3125 0 -2.40625 -0.4375q-1.078125 -0.453125 -1.84375 -1.234375q-0.765625 -0.796875 -1.203125 -1.875q-0.421875 -1.09375 -0.421875 -2.359375q0 -1.28125 0.421875 -2.359375q0.4375 -1.078125 1.203125 -1.875q0.765625 -0.796875 1.84375 -1.234375q1.09375 -0.453125 2.40625 -0.453125q1.3125 0 2.390625 0.453125q1.078125 0.453125 1.84375 1.25q0.78125 0.78125 1.203125 1.859375q0.421875 1.078125 0.421875 2.359375zm-2.203125 0q0 -0.953125 -0.265625 -1.703125q-0.25 -0.765625 -0.71875 -1.28125q-0.46875 -0.53125 -1.15625 -0.8125q-0.671875 -0.28125 -1.515625 -0.28125q-0.84375 0 -1.53125 0.28125q-0.671875 0.28125 -1.15625 0.8125q-0.46875 0.515625 -0.734375 1.28125q-0.25 0.75 -0.25 1.703125q0 0.953125 0.25 1.71875q0.265625 0.75 0.734375 1.28125q0.484375 0.515625 1.15625 0.796875q0.6875 0.265625 1.53125 0.265625q0.84375 0 1.515625 -0.265625q0.6875 -0.28125 1.15625 -0.796875q0.46875 -0.53125 0.71875 -1.28125q0.265625 -0.765625 0.265625 -1.71875zm3.791809 8.46875l0 -10.890625l1.203125 0q0.1875 0 0.328125 0.09375q0.140625 0.078125 0.171875 0.265625l0.15625 0.75q0.5 -0.5625 1.140625 -0.90625q0.65625 -0.359375 1.515625 -0.359375q0.671875 0 1.21875 0.28125q0.5625 0.28125 0.96875 0.8125q0.40625 0.53125 0.625 1.3125q0.21875 0.78125 0.21875 1.78125q0 0.921875 -0.25 1.703125q-0.25 0.78125 -0.71875 1.359375q-0.453125 0.578125 -1.109375 0.90625q-0.640625 0.328125 -1.453125 0.328125q-0.6875 0 -1.171875 -0.203125q-0.484375 -0.21875 -0.875 -0.609375l0 3.375l-1.96875 0zm3.828125 -9.484375q-0.609375 0 -1.046875 0.265625q-0.4375 0.25 -0.8125 0.71875l0 3.6875q0.34375 0.40625 0.734375 0.578125q0.390625 0.15625 0.84375 0.15625q0.453125 0 0.8125 -0.15625q0.375 -0.171875 0.625 -0.515625q0.25 -0.34375 0.375 -0.859375q0.140625 -0.53125 0.140625 -1.25q0 -0.71875 -0.125 -1.21875q-0.109375 -0.5 -0.328125 -0.8125q-0.203125 -0.3125 -0.515625 -0.453125q-0.3125 -0.140625 -0.703125 -0.140625zm7.9072876 6.921875q-1.0625 0 -1.640625 -0.59375q-0.578125 -0.609375 -0.578125 -1.671875l0 -4.59375l-0.828125 0q-0.15625 0 -0.28125 -0.09375q-0.109375 -0.109375 -0.109375 -0.3125l0 -0.78125l1.3125 -0.21875l0.421875 -2.25q0.03125 -0.15625 0.140625 -0.234375q0.125 -0.09375 0.296875 -0.09375l1.03125 0l0 2.578125l2.15625 0l0 1.40625l-2.15625 0l0 4.453125q0 0.390625 0.1875 0.609375q0.1875 0.203125 0.515625 0.203125q0.1875 0 0.296875 -0.03125q0.125 -0.046875 0.21875 -0.09375q0.09375 -0.046875 0.15625 -0.09375q0.078125 -0.046875 0.15625 -0.046875q0.09375 0 0.140625 0.046875q0.0625 0.046875 0.125 0.125l0.59375 0.96875q-0.4375 0.359375 -1.0 0.546875q-0.546875 0.171875 -1.15625 0.171875zm5.5981445 -8.328125l0 8.203125l-1.96875 0l0 -8.203125l1.96875 0zm0.296875 -2.390625q0 0.25 -0.109375 0.484375q-0.09375 0.21875 -0.265625 0.390625q-0.171875 0.15625 -0.40625 0.265625q-0.234375 0.09375 -0.5 0.09375q-0.25 0 -0.484375 -0.09375q-0.21875 -0.109375 -0.390625 -0.265625q-0.171875 -0.171875 -0.28125 -0.390625q-0.09375 -0.234375 -0.09375 -0.484375q0 -0.265625 0.09375 -0.5q0.109375 -0.234375 0.28125 -0.390625q0.171875 -0.171875 0.390625 -0.265625q0.234375 -0.109375 0.484375 -0.109375q0.265625 0 0.5 0.109375q0.234375 0.09375 0.40625 0.265625q0.171875 0.15625 0.265625 0.390625q0.109375 0.234375 0.109375 0.5zm1.9453125 10.59375l0 -8.203125l1.203125 0q0.375 0 0.5 0.359375l0.125 0.609375q0.21875 -0.25 0.453125 -0.4375q0.234375 -0.203125 0.5 -0.34375q0.28125 -0.15625 0.578125 -0.234375q0.3125 -0.078125 0.6875 -0.078125q0.765625 0 1.265625 0.421875q0.5 0.40625 0.75 1.109375q0.1875 -0.40625 0.46875 -0.703125q0.296875 -0.296875 0.640625 -0.46875q0.34375 -0.1875 0.734375 -0.265625q0.390625 -0.09375 0.78125 -0.09375q0.6875 0 1.203125 0.203125q0.53125 0.203125 0.890625 0.609375q0.359375 0.390625 0.546875 0.96875q0.1875 0.578125 0.1875 1.328125l0 5.21875l-1.96875 0l0 -5.21875q0 -0.796875 -0.34375 -1.1875q-0.34375 -0.390625 -1.015625 -0.390625q-0.296875 0 -0.5625 0.109375q-0.25 0.09375 -0.453125 0.296875q-0.1875 0.1875 -0.3125 0.484375q-0.109375 0.296875 -0.109375 0.6875l0 5.21875l-1.984375 0l0 -5.21875q0 -0.828125 -0.328125 -1.203125q-0.328125 -0.375 -0.984375 -0.375q-0.421875 0 -0.796875 0.21875q-0.359375 0.203125 -0.6875 0.5625l0 6.015625l-1.96875 0zm15.565613 -8.203125l0 8.203125l-1.96875 0l0 -8.203125l1.96875 0zm0.296875 -2.390625q0 0.25 -0.109375 0.484375q-0.09375 0.21875 -0.265625 0.390625q-0.171875 0.15625 -0.40625 0.265625q-0.234375 0.09375 -0.5 0.09375q-0.25 0 -0.484375 -0.09375q-0.21875 -0.109375 -0.390625 -0.265625q-0.171875 -0.171875 -0.28125 -0.390625q-0.09375 -0.234375 -0.09375 -0.484375q0 -0.265625 0.09375 -0.5q0.109375 -0.234375 0.28125 -0.390625q0.171875 -0.171875 0.390625 -0.265625q0.234375 -0.109375 0.484375 -0.109375q0.265625 0 0.5 0.109375q0.234375 0.09375 0.40625 0.265625q0.171875 0.15625 0.265625 0.390625q0.109375 0.234375 0.109375 0.5zm7.8671875 3.203125q0 0.203125 -0.078125 0.40625q-0.0625 0.1875 -0.171875 0.328125l-3.90625 5.140625l4.046875 0l0 1.515625l-6.34375 0l0 -0.828125q0 -0.125 0.0625 -0.3125q0.0625 -0.203125 0.203125 -0.359375l3.9375 -5.203125l-3.96875 0l0 -1.5l6.21875 0l0 0.8125zm8.011902 7.390625l-0.890625 0q-0.28125 0 -0.4375 -0.078125q-0.15625 -0.09375 -0.234375 -0.34375l-0.171875 -0.59375q-0.3125 0.28125 -0.625 0.5q-0.296875 0.21875 -0.625 0.359375q-0.3125 0.140625 -0.671875 0.203125q-0.359375 0.078125 -0.796875 0.078125q-0.515625 0 -0.96875 -0.140625q-0.4375 -0.140625 -0.75 -0.421875q-0.3125 -0.28125 -0.5 -0.6875q-0.171875 -0.421875 -0.171875 -0.96875q0 -0.46875 0.25 -0.921875q0.25 -0.453125 0.8125 -0.8125q0.5625 -0.359375 1.5 -0.59375q0.953125 -0.25 2.359375 -0.28125l0 -0.484375q0 -0.828125 -0.359375 -1.21875q-0.34375 -0.390625 -1.0 -0.390625q-0.484375 0 -0.8125 0.109375q-0.3125 0.109375 -0.546875 0.25q-0.234375 0.140625 -0.4375 0.25q-0.203125 0.109375 -0.4375 0.109375q-0.203125 0 -0.34375 -0.09375q-0.140625 -0.109375 -0.234375 -0.265625l-0.359375 -0.625q1.421875 -1.296875 3.421875 -1.296875q0.71875 0 1.28125 0.234375q0.5625 0.234375 0.953125 0.65625q0.390625 0.421875 0.59375 1.015625q0.203125 0.578125 0.203125 1.265625l0 5.1875zm-3.84375 -1.234375q0.3125 0 0.5625 -0.046875q0.265625 -0.0625 0.484375 -0.171875q0.234375 -0.109375 0.4375 -0.265625q0.21875 -0.171875 0.4375 -0.40625l0 -1.375q-0.859375 0.03125 -1.453125 0.140625q-0.578125 0.109375 -0.9375 0.28125q-0.34375 0.171875 -0.5 0.390625q-0.140625 0.21875 -0.140625 0.484375q0 0.515625 0.3125 0.75q0.3125 0.21875 0.796875 0.21875zm8.4852295 1.359375q-1.0625 0 -1.640625 -0.59375q-0.578125 -0.609375 -0.578125 -1.671875l0 -4.59375l-0.828125 0q-0.15625 0 -0.28125 -0.09375q-0.109375 -0.109375 -0.109375 -0.3125l0 -0.78125l1.3125 -0.21875l0.421875 -2.25q0.03125 -0.15625 0.140625 -0.234375q0.125 -0.09375 0.296875 -0.09375l1.03125 0l0 2.578125l2.15625 0l0 1.40625l-2.15625 0l0 4.453125q0 0.390625 0.1875 0.609375q0.1875 0.203125 0.515625 0.203125q0.1875 0 0.296875 -0.03125q0.125 -0.046875 0.21875 -0.09375q0.09375 -0.046875 0.15625 -0.09375q0.078125 -0.046875 0.15625 -0.046875q0.09375 0 0.140625 0.046875q0.0625 0.046875 0.125 0.125l0.59375 0.96875q-0.4375 0.359375 -1.0 0.546875q-0.546875 0.171875 -1.15625 0.171875zm5.5982056 -8.328125l0 8.203125l-1.96875 0l0 -8.203125l1.96875 0zm0.296875 -2.390625q0 0.25 -0.109375 0.484375q-0.09375 0.21875 -0.265625 0.390625q-0.171875 0.15625 -0.40625 0.265625q-0.234375 0.09375 -0.5 0.09375q-0.25 0 -0.484375 -0.09375q-0.21875 -0.109375 -0.390625 -0.265625q-0.171875 -0.171875 -0.28125 -0.390625q-0.09375 -0.234375 -0.09375 -0.484375q0 -0.265625 0.09375 -0.5q0.109375 -0.234375 0.28125 -0.390625q0.171875 -0.171875 0.390625 -0.265625q0.234375 -0.109375 0.484375 -0.109375q0.265625 0 0.5 0.109375q0.234375 0.09375 0.40625 0.265625q0.171875 0.15625 0.265625 0.390625q0.109375 0.234375 0.109375 0.5zm5.4453125 2.265625q0.921875 0 1.65625 0.296875q0.75 0.28125 1.28125 0.828125q0.53125 0.546875 0.8125 1.328125q0.296875 0.78125 0.296875 1.75q0 0.984375 -0.296875 1.765625q-0.28125 0.78125 -0.8125 1.34375q-0.53125 0.546875 -1.28125 0.84375q-0.734375 0.296875 -1.65625 0.296875q-0.921875 0 -1.671875 -0.296875q-0.75 -0.296875 -1.28125 -0.84375q-0.53125 -0.5625 -0.828125 -1.34375q-0.296875 -0.78125 -0.296875 -1.765625q0 -0.96875 0.296875 -1.75q0.296875 -0.78125 0.828125 -1.328125q0.53125 -0.546875 1.28125 -0.828125q0.75 -0.296875 1.671875 -0.296875zm0 6.921875q1.015625 0 1.5 -0.6875q0.5 -0.6875 0.5 -2.015625q0 -1.328125 -0.5 -2.015625q-0.484375 -0.703125 -1.5 -0.703125q-1.046875 0 -1.546875 0.703125q-0.484375 0.703125 -0.484375 2.015625q0 1.328125 0.484375 2.015625q0.5 0.6875 1.546875 0.6875zm5.595886 1.40625l0 -8.203125l1.203125 0q0.375 0 0.5 0.359375l0.140625 0.640625q0.25 -0.25 0.515625 -0.453125q0.28125 -0.21875 0.578125 -0.359375q0.3125 -0.15625 0.671875 -0.234375q0.359375 -0.078125 0.765625 -0.078125q0.671875 0 1.1875 0.234375q0.53125 0.21875 0.875 0.625q0.34375 0.40625 0.515625 0.984375q0.1875 0.578125 0.1875 1.265625l0 5.21875l-1.96875 0l0 -5.21875q0 -0.75 -0.359375 -1.15625q-0.34375 -0.421875 -1.03125 -0.421875q-0.515625 0 -0.96875 0.234375q-0.4375 0.234375 -0.84375 0.625l0 5.9375l-1.96875 0z" fill-rule="nonzero"/></g><path fill="#000000" fill-opacity="0.0" d="m282.77167 19.627296l123.49606 0l0 35.149605l-123.49606 0z" fill-rule="evenodd"/><path fill="#ff0000" d="m295.62424 34.307922l2.609375 0q0.421875 0 0.671875 0.21875q0.265625 0.203125 0.40625 0.515625l4.078125 10.59375q0.203125 0.515625 0.390625 1.140625q0.1875 0.609375 0.359375 1.296875q0.265625 -1.390625 0.671875 -2.4375l4.078125 -10.59375q0.109375 -0.265625 0.375 -0.5q0.28125 -0.234375 0.6875 -0.234375l2.609375 0l-7.015625 17.359375l-2.90625 0l-7.015625 -17.359375zm21.7276 5.046875l0 12.3125l-2.953125 0l0 -12.3125l2.953125 0zm0.453125 -3.59375q0 0.390625 -0.15625 0.734375q-0.15625 0.328125 -0.421875 0.578125q-0.25 0.25 -0.609375 0.40625q-0.34375 0.140625 -0.734375 0.140625q-0.390625 0 -0.734375 -0.140625q-0.328125 -0.15625 -0.59375 -0.40625q-0.25 -0.25 -0.40625 -0.578125q-0.140625 -0.34375 -0.140625 -0.734375q0 -0.390625 0.140625 -0.734375q0.15625 -0.34375 0.40625 -0.59375q0.265625 -0.265625 0.59375 -0.40625q0.34375 -0.15625 0.734375 -0.15625q0.390625 0 0.734375 0.15625q0.359375 0.140625 0.609375 0.40625q0.265625 0.25 0.421875 0.59375q0.15625 0.34375 0.15625 0.734375zm6.941559 16.09375q-1.59375 0 -2.46875 -0.90625q-0.859375 -0.90625 -0.859375 -2.5l0 -6.875l-1.234375 0q-0.25 0 -0.421875 -0.15625q-0.171875 -0.15625 -0.171875 -0.46875l0 -1.171875l1.984375 -0.328125l0.625 -3.359375q0.046875 -0.234375 0.21875 -0.359375q0.171875 -0.140625 0.4375 -0.140625l1.53125 0l0 3.875l3.25 0l0 2.109375l-3.25 0l0 6.671875q0 0.578125 0.28125 0.90625q0.296875 0.3125 0.78125 0.3125q0.265625 0 0.453125 -0.0625q0.1875 -0.0625 0.328125 -0.125q0.140625 -0.078125 0.25 -0.140625q0.109375 -0.078125 0.21875 -0.078125q0.125 0 0.203125 0.078125q0.09375 0.0625 0.1875 0.1875l0.890625 1.4375q-0.65625 0.546875 -1.5 0.828125q-0.828125 0.265625 -1.734375 0.265625zm8.39743 -12.5l0 12.3125l-2.953125 0l0 -12.3125l2.953125 0zm0.453125 -3.59375q0 0.390625 -0.15625 0.734375q-0.15625 0.328125 -0.421875 0.578125q-0.25 0.25 -0.609375 0.40625q-0.34375 0.140625 -0.734375 0.140625q-0.390625 0 -0.734375 -0.140625q-0.328125 -0.15625 -0.59375 -0.40625q-0.25 -0.25 -0.40625 -0.578125q-0.140625 -0.34375 -0.140625 -0.734375q0 -0.390625 0.140625 -0.734375q0.15625 -0.34375 0.40625 -0.59375q0.265625 -0.265625 0.59375 -0.40625q0.34375 -0.15625 0.734375 -0.15625q0.390625 0 0.734375 0.15625q0.359375 0.140625 0.609375 0.40625q0.265625 0.25 0.421875 0.59375q0.15625 0.34375 0.15625 0.734375zm10.207184 6.0q-0.125 0.1875 -0.25 0.265625q-0.125 0.078125 -0.34375 0.078125q-0.203125 0 -0.453125 -0.109375q-0.25 -0.125 -0.578125 -0.28125q-0.3125 -0.15625 -0.734375 -0.265625q-0.40625 -0.125 -0.96875 -0.125q-0.875 0 -1.390625 0.375q-0.5 0.375 -0.5 0.96875q0 0.390625 0.25 0.671875q0.265625 0.265625 0.6875 0.46875q0.4375 0.203125 0.96875 0.375q0.546875 0.15625 1.109375 0.34375q0.5625 0.1875 1.09375 0.4375q0.546875 0.25 0.96875 0.625q0.4375 0.375 0.6875 0.90625q0.265625 0.53125 0.265625 1.265625q0 0.890625 -0.328125 1.640625q-0.328125 0.75 -0.953125 1.296875q-0.625 0.546875 -1.546875 0.859375q-0.90625 0.296875 -2.09375 0.296875q-0.640625 0 -1.25 -0.109375q-0.609375 -0.109375 -1.171875 -0.3125q-0.546875 -0.203125 -1.03125 -0.484375q-0.46875 -0.28125 -0.828125 -0.59375l0.6875 -1.140625q0.125 -0.203125 0.3125 -0.3125q0.1875 -0.109375 0.453125 -0.109375q0.28125 0 0.515625 0.15625q0.25 0.15625 0.578125 0.34375q0.328125 0.171875 0.765625 0.328125q0.4375 0.15625 1.109375 0.15625q0.53125 0 0.90625 -0.125q0.375 -0.125 0.625 -0.328125q0.25 -0.203125 0.359375 -0.46875q0.109375 -0.265625 0.109375 -0.5625q0 -0.421875 -0.265625 -0.703125q-0.25 -0.28125 -0.671875 -0.484375q-0.421875 -0.203125 -0.96875 -0.359375q-0.546875 -0.171875 -1.125 -0.359375q-0.5625 -0.1875 -1.109375 -0.4375q-0.546875 -0.265625 -0.984375 -0.65625q-0.421875 -0.40625 -0.6875 -0.984375q-0.25 -0.578125 -0.25 -1.390625q0 -0.75 0.296875 -1.4375q0.3125 -0.6875 0.890625 -1.1875q0.578125 -0.515625 1.453125 -0.8125q0.875 -0.3125 2.015625 -0.3125q1.265625 0 2.3125 0.421875q1.046875 0.40625 1.734375 1.09375l-0.671875 1.078125zm22.620087 9.90625l-3.25 0l0 -7.578125l-8.140625 0l0 7.578125l-3.25 0l0 -17.359375l3.25 0l0 7.46875l8.140625 0l0 -7.46875l3.25 0l0 17.359375zm6.7378845 -2.65625l6.9375 0l0 2.65625l-10.171875 0l0 -17.359375l3.234375 0l0 14.703125zm18.470581 -11.546875q-0.125 0.265625 -0.296875 0.375q-0.171875 0.109375 -0.421875 0.109375q-0.234375 0 -0.546875 -0.1875q-0.296875 -0.1875 -0.703125 -0.40625q-0.40625 -0.234375 -0.953125 -0.421875q-0.546875 -0.1875 -1.28125 -0.1875q-0.671875 0 -1.171875 0.171875q-0.5 0.15625 -0.84375 0.453125q-0.34375 0.28125 -0.515625 0.6875q-0.15625 0.390625 -0.15625 0.875q0 0.609375 0.34375 1.03125q0.34375 0.40625 0.90625 0.6875q0.5625 0.28125 1.28125 0.515625q0.71875 0.234375 1.46875 0.5q0.75 0.25 1.46875 0.59375q0.71875 0.328125 1.28125 0.859375q0.5625 0.515625 0.90625 1.28125q0.34375 0.75 0.34375 1.828125q0 1.171875 -0.40625 2.203125q-0.390625 1.03125 -1.171875 1.796875q-0.78125 0.75 -1.890625 1.1875q-1.109375 0.4375 -2.5625 0.4375q-0.828125 0 -1.625 -0.15625q-0.796875 -0.15625 -1.546875 -0.453125q-0.734375 -0.3125 -1.375 -0.734375q-0.640625 -0.421875 -1.140625 -0.9375l0.9375 -1.546875q0.125 -0.15625 0.3125 -0.265625q0.1875 -0.125 0.40625 -0.125q0.3125 0 0.65625 0.25q0.34375 0.234375 0.8125 0.546875q0.484375 0.296875 1.125 0.546875q0.640625 0.234375 1.546875 0.234375q1.375 0 2.125 -0.640625q0.765625 -0.65625 0.765625 -1.890625q0 -0.671875 -0.34375 -1.109375q-0.34375 -0.4375 -0.90625 -0.71875q-0.5625 -0.296875 -1.28125 -0.5q-0.71875 -0.21875 -1.46875 -0.453125q-0.75 -0.234375 -1.46875 -0.5625q-0.71875 -0.34375 -1.28125 -0.875q-0.5625 -0.546875 -0.90625 -1.359375q-0.34375 -0.8125 -0.34375 -2.0q0 -0.953125 0.375 -1.84375q0.390625 -0.90625 1.109375 -1.59375q0.734375 -0.703125 1.78125 -1.125q1.0625 -0.421875 2.40625 -0.421875q1.546875 0 2.84375 0.484375q1.296875 0.484375 2.203125 1.34375l-0.796875 1.515625z" fill-rule="nonzero"/><path fill="#000000" fill-opacity="0.0" d="m566.02496 166.68709l148.5354 0l0 35.149612l-148.5354 0z" fill-rule="evenodd"/><path fill="#00495f" d="m586.07184 184.52397q-0.125 0.265625 -0.296875 0.375q-0.171875 0.109375 -0.421875 0.109375q-0.234375 0 -0.546875 -0.1875q-0.296875 -0.1875 -0.703125 -0.40625q-0.40625 -0.234375 -0.953125 -0.421875q-0.546875 -0.1875 -1.28125 -0.1875q-0.671875 0 -1.171875 0.171875q-0.5 0.15625 -0.84375 0.453125q-0.34375 0.28125 -0.515625 0.6875q-0.15625 0.390625 -0.15625 0.875q0 0.609375 0.34375 1.03125q0.34375 0.40625 0.90625 0.6875q0.5625 0.28125 1.28125 0.515625q0.71875 0.234375 1.46875 0.5q0.75 0.25 1.46875 0.59375q0.71875 0.328125 1.28125 0.859375q0.5625 0.515625 0.90625 1.28125q0.34375 0.75 0.34375 1.828125q0 1.171875 -0.40625 2.203125q-0.390625 1.03125 -1.171875 1.796875q-0.78125 0.75 -1.890625 1.1875q-1.109375 0.4375 -2.5625 0.4375q-0.828125 0 -1.625 -0.15625q-0.796875 -0.15625 -1.546875 -0.453125q-0.734375 -0.3125 -1.375 -0.734375q-0.640625 -0.421875 -1.140625 -0.9375l0.9375 -1.546875q0.125 -0.15625 0.3125 -0.265625q0.1875 -0.125 0.40625 -0.125q0.3125 0 0.65625 0.25q0.34375 0.234375 0.8125 0.546875q0.484375 0.296875 1.125 0.546875q0.640625 0.234375 1.546875 0.234375q1.375 0 2.125 -0.640625q0.765625 -0.65625 0.765625 -1.890625q0 -0.671875 -0.34375 -1.109375q-0.34375 -0.4375 -0.90625 -0.71875q-0.5625 -0.296875 -1.28125 -0.5q-0.71875 -0.21875 -1.46875 -0.453125q-0.75 -0.234375 -1.46875 -0.5625q-0.71875 -0.34375 -1.28125 -0.875q-0.5625 -0.546875 -0.90625 -1.359375q-0.34375 -0.8125 -0.34375 -2.0q0 -0.953125 0.375 -1.84375q0.390625 -0.90625 1.109375 -1.59375q0.734375 -0.703125 1.78125 -1.125q1.0625 -0.421875 2.40625 -0.421875q1.546875 0 2.84375 0.484375q1.296875 0.484375 2.203125 1.34375l-0.796875 1.515625zm6.8135376 11.546875l6.9375 0l0 2.65625l-10.171875 0l0 -17.359375l3.234375 0l0 14.703125zm13.345581 -6.265625l-5.53125 -8.4375l3.203125 0q0.34375 0 0.484375 0.09375q0.15625 0.09375 0.28125 0.296875l3.9375 6.375q0.0625 -0.15625 0.140625 -0.296875q0.078125 -0.15625 0.171875 -0.3125l3.609375 -5.703125q0.265625 -0.453125 0.6875 -0.453125l3.09375 0l-5.59375 8.296875l5.75 9.0625l-3.234375 0q-0.328125 0 -0.53125 -0.171875q-0.1875 -0.171875 -0.3125 -0.375l-4.03125 -6.65625q-0.046875 0.140625 -0.109375 0.28125q-0.046875 0.125 -0.109375 0.21875l-3.859375 6.15625q-0.125 0.203125 -0.328125 0.375q-0.1875 0.171875 -0.46875 0.171875l-3.03125 0l5.78125 -8.921875zm20.100037 2.8125l0 6.109375l-3.234375 0l0 -17.359375l5.65625 0q1.734375 0 3.0 0.421875q1.28125 0.40625 2.109375 1.140625q0.828125 0.71875 1.21875 1.75q0.40625 1.015625 0.40625 2.234375q0 1.25 -0.421875 2.3125q-0.421875 1.046875 -1.265625 1.796875q-0.84375 0.75 -2.109375 1.171875q-1.25 0.421875 -2.9375 0.421875l-2.421875 0zm0 -2.515625l2.421875 0q0.890625 0 1.546875 -0.21875q0.65625 -0.234375 1.078125 -0.640625q0.4375 -0.421875 0.65625 -1.015625q0.21875 -0.59375 0.21875 -1.3125q0 -0.703125 -0.21875 -1.265625q-0.21875 -0.5625 -0.65625 -0.953125q-0.421875 -0.40625 -1.078125 -0.609375q-0.65625 -0.21875 -1.546875 -0.21875l-2.421875 0l0 6.234375zm14.640747 -9.203125l0 17.828125l-2.953125 0l0 -17.828125l2.953125 0zm6.0665283 5.515625l0 7.828125q0 1.125 0.515625 1.75q0.53125 0.609375 1.578125 0.609375q0.765625 0 1.4375 -0.34375q0.671875 -0.34375 1.265625 -0.9375l0 -8.90625l2.96875 0l0 12.3125l-1.8125 0q-0.578125 0 -0.765625 -0.546875l-0.203125 -0.984375q-0.375 0.390625 -0.78125 0.71875q-0.40625 0.3125 -0.875 0.53125q-0.46875 0.21875 -1.0 0.34375q-0.53125 0.125 -1.140625 0.125q-1.015625 0 -1.796875 -0.328125q-0.765625 -0.34375 -1.296875 -0.96875q-0.515625 -0.625 -0.796875 -1.484375q-0.265625 -0.859375 -0.265625 -1.890625l0 -7.828125l2.96875 0zm15.190979 -0.21875q0.796875 0 1.484375 0.171875q0.703125 0.15625 1.28125 0.46875l3.53125 0l0 1.109375q0 0.265625 -0.140625 0.421875q-0.140625 0.15625 -0.484375 0.21875l-1.109375 0.203125q0.125 0.3125 0.1875 0.671875q0.0625 0.34375 0.0625 0.71875q0 0.921875 -0.375 1.65625q-0.359375 0.734375 -1.0 1.25q-0.640625 0.515625 -1.53125 0.796875q-0.875 0.28125 -1.90625 0.28125q-0.703125 0 -1.359375 -0.125q-0.578125 0.34375 -0.578125 0.78125q0 0.359375 0.34375 0.546875q0.34375 0.171875 0.90625 0.25q0.5625 0.0625 1.265625 0.078125q0.703125 0.015625 1.4375 0.078125q0.75 0.0625 1.453125 0.21875q0.71875 0.140625 1.265625 0.46875q0.5625 0.328125 0.90625 0.890625q0.34375 0.546875 0.34375 1.421875q0 0.8125 -0.40625 1.578125q-0.390625 0.78125 -1.15625 1.375q-0.765625 0.59375 -1.875 0.953125q-1.09375 0.375 -2.515625 0.375q-1.40625 0 -2.4375 -0.265625q-1.03125 -0.265625 -1.703125 -0.71875q-0.671875 -0.453125 -1.015625 -1.046875q-0.328125 -0.578125 -0.328125 -1.21875q0 -0.859375 0.515625 -1.4375q0.53125 -0.59375 1.46875 -0.953125q-0.453125 -0.25 -0.734375 -0.671875q-0.265625 -0.421875 -0.265625 -1.09375q0 -0.265625 0.09375 -0.5625q0.09375 -0.296875 0.28125 -0.578125q0.203125 -0.296875 0.5 -0.546875q0.3125 -0.265625 0.71875 -0.46875q-0.9375 -0.5 -1.484375 -1.34375q-0.53125 -0.84375 -0.53125 -1.96875q0 -0.90625 0.359375 -1.640625q0.375 -0.75 1.03125 -1.265625q0.65625 -0.515625 1.546875 -0.796875q0.890625 -0.28125 1.953125 -0.28125zm3.25 13.078125q0 -0.359375 -0.21875 -0.578125q-0.21875 -0.234375 -0.59375 -0.359375q-0.359375 -0.125 -0.859375 -0.1875q-0.5 -0.0625 -1.0625 -0.09375q-0.546875 -0.03125 -1.140625 -0.046875q-0.59375 -0.03125 -1.15625 -0.109375q-0.5 0.28125 -0.8125 0.65625q-0.296875 0.375 -0.296875 0.875q0 0.3125 0.15625 0.59375q0.171875 0.28125 0.515625 0.484375q0.359375 0.203125 0.921875 0.3125q0.5625 0.125 1.375 0.125q0.828125 0 1.421875 -0.125q0.609375 -0.125 1.0 -0.34375q0.390625 -0.21875 0.5625 -0.53125q0.1875 -0.3125 0.1875 -0.671875zm-3.25 -7.0q0.546875 0 0.953125 -0.140625q0.421875 -0.15625 0.6875 -0.421875q0.265625 -0.265625 0.40625 -0.640625q0.140625 -0.375 0.140625 -0.8125q0 -0.921875 -0.546875 -1.453125q-0.546875 -0.53125 -1.640625 -0.53125q-1.09375 0 -1.640625 0.53125q-0.546875 0.53125 -0.546875 1.453125q0 0.421875 0.140625 0.796875q0.140625 0.375 0.40625 0.65625q0.265625 0.265625 0.671875 0.421875q0.421875 0.140625 0.96875 0.140625zm11.31073 -5.859375l0 12.3125l-2.953125 0l0 -12.3125l2.953125 0zm0.453125 -3.59375q0 0.390625 -0.15625 0.734375q-0.15625 0.328125 -0.421875 0.578125q-0.25 0.25 -0.609375 0.40625q-0.34375 0.140625 -0.734375 0.140625q-0.390625 0 -0.734375 -0.140625q-0.328125 -0.15625 -0.59375 -0.40625q-0.25 -0.25 -0.40625 -0.578125q-0.140625 -0.34375 -0.140625 -0.734375q0 -0.390625 0.140625 -0.734375q0.15625 -0.34375 0.40625 -0.59375q0.265625 -0.265625 0.59375 -0.40625q0.34375 -0.15625 0.734375 -0.15625q0.390625 0 0.734375 0.15625q0.359375 0.140625 0.609375 0.40625q0.265625 0.25 0.421875 0.59375q0.15625 0.34375 0.15625 0.734375zm2.8946533 15.90625l0 -12.3125l1.8125 0q0.578125 0 0.765625 0.546875l0.203125 0.96875q0.375 -0.390625 0.78125 -0.703125q0.421875 -0.3125 0.875 -0.53125q0.46875 -0.234375 0.984375 -0.34375q0.53125 -0.125 1.15625 -0.125q1.015625 0 1.796875 0.34375q0.78125 0.34375 1.296875 0.96875q0.515625 0.609375 0.78125 1.46875q0.28125 0.84375 0.28125 1.875l0 7.84375l-2.96875 0l0 -7.84375q0 -1.125 -0.53125 -1.734375q-0.515625 -0.625 -1.546875 -0.625q-0.78125 0 -1.453125 0.359375q-0.671875 0.34375 -1.265625 0.9375l0 8.90625l-2.96875 0z" fill-rule="nonzero"/><path fill="#858585" d="m294.08878 414.52094l7.8955994 0l0 -154.16031l15.791199 0l0 154.16031l7.895569 0l-15.791168 15.791199z" fill-rule="evenodd"/><path fill="#858585" d="m294.08807 194.9895l7.895569 0l0 -64.99686l15.791199 0l0 64.99686l7.8955994 0l-15.791199 15.791183z" fill-rule="evenodd"/><g filter="url(#shadowFilter-p.2)"><use xlink:href="#p.2" transform="matrix(1.0 0.0 0.0 1.0 2.8284271320333003 2.8284271320333003)"/></g><defs><filter id="shadowFilter-p.2" filterUnits="userSpaceOnUse"><feGaussianBlur in="SourceAlpha" stdDeviation="1.7777777" result="blur"/><feComponentTransfer in="blur" color-interpolation-filters="sRGB"><feFuncR type="linear" slope="0" intercept="0.0"/><feFuncG type="linear" slope="0" intercept="0.0"/><feFuncB type="linear" slope="0" intercept="0.0"/><feFuncA type="linear" slope="0.4" intercept="0"/></feComponentTransfer></filter></defs><g id="p.2"><path fill="#ffffff" d="m222.24745 140.13892l244.54439 0l0 44.54161l-244.54439 0z" fill-rule="evenodd"/><path stroke="#ff0000" stroke-width="1.3333333333333333" stroke-miterlimit="800.0" stroke-linecap="butt" d="m222.24745 140.13892l244.54439 0l0 44.54161l-244.54439 0z" fill-rule="evenodd"/><path fill="#000000" fill-opacity="0.0" d="m298.28613 141.58194l92.46704 0l0 24.525253l-92.46704 0l0 -24.525253z" fill-rule="nonzero"/><path fill="#000000" d="m300.03613 160.88972l0 -15.265625l10.296875 0l0 1.796875l-8.28125 0l0 4.734375l7.171875 0l0 1.796875l-7.171875 0l0 6.9375l-2.015625 0zm12.668701 0l0 -11.0625l1.6875 0l0 1.671875q0.640625 -1.171875 1.1875 -1.546875q0.546875 -0.375 1.203125 -0.375q0.953125 0 1.921875 0.609375l-0.640625 1.734375q-0.6875 -0.40625 -1.375 -0.40625q-0.609375 0 -1.109375 0.375q-0.484375 0.359375 -0.6875 1.015625q-0.3125 1.0 -0.3125 2.1875l0 5.796875l-1.875 0zm6.414917 -5.53125q0 -3.078125 1.71875 -4.546875q1.421875 -1.234375 3.46875 -1.234375q2.28125 0 3.71875 1.5q1.453125 1.484375 1.453125 4.125q0 2.140625 -0.640625 3.359375q-0.625 1.21875 -1.859375 1.90625q-1.21875 0.671875 -2.671875 0.671875q-2.3125 0 -3.75 -1.484375q-1.4375 -1.5 -1.4375 -4.296875zm1.9375 0q0 2.125 0.921875 3.1875q0.921875 1.046875 2.328125 1.046875q1.40625 0 2.328125 -1.0625q0.921875 -1.0625 0.921875 -3.234375q0 -2.046875 -0.9375 -3.109375q-0.921875 -1.0625 -2.3125 -1.0625q-1.40625 0 -2.328125 1.0625q-0.921875 1.046875 -0.921875 3.171875zm10.627319 5.53125l0 -11.0625l1.6875 0l0 1.578125q1.21875 -1.828125 3.515625 -1.828125q1.0 0 1.84375 0.359375q0.84375 0.359375 1.25 0.953125q0.421875 0.578125 0.59375 1.375q0.09375 0.515625 0.09375 1.828125l0 6.796875l-1.875 0l0 -6.734375q0 -1.140625 -0.21875 -1.703125q-0.21875 -0.578125 -0.78125 -0.90625q-0.546875 -0.34375 -1.296875 -0.34375q-1.203125 0 -2.078125 0.765625q-0.859375 0.75 -0.859375 2.875l0 6.046875l-1.875 0zm15.955444 -1.671875l0.265625 1.65625q-0.78125 0.15625 -1.40625 0.15625q-1.03125 0 -1.59375 -0.3125q-0.5625 -0.328125 -0.796875 -0.84375q-0.21875 -0.53125 -0.21875 -2.21875l0 -6.375l-1.375 0l0 -1.453125l1.375 0l0 -2.734375l1.859375 -1.125l0 3.859375l1.890625 0l0 1.453125l-1.890625 0l0 6.46875q0 0.8125 0.09375 1.046875q0.109375 0.21875 0.328125 0.359375q0.234375 0.125 0.640625 0.125q0.3125 0 0.828125 -0.0625zm1.0975342 -2.90625l0 -1.890625l5.7655945 0l0 1.890625l-5.7655945 0zm15.414917 1.015625l1.921875 0.234375q-0.453125 1.703125 -1.6875 2.640625q-1.234375 0.9375 -3.171875 0.9375q-2.421875 0 -3.84375 -1.484375q-1.421875 -1.5 -1.421875 -4.203125q0 -2.796875 1.4375 -4.328125q1.4375 -1.546875 3.734375 -1.546875q2.21875 0 3.609375 1.515625q1.40625 1.5 1.40625 4.25q0 0.15625 0 0.5l-8.25 0q0.109375 1.8125 1.03125 2.78125q0.921875 0.96875 2.3125 0.96875q1.03125 0 1.75 -0.53125q0.734375 -0.546875 1.171875 -1.734375zm-6.15625 -3.03125l6.171875 0q-0.125 -1.390625 -0.703125 -2.09375q-0.90625 -1.078125 -2.328125 -1.078125q-1.296875 0 -2.171875 0.859375q-0.875 0.859375 -0.96875 2.3125zm10.439819 6.59375l0 -11.0625l1.6875 0l0 1.578125q1.21875 -1.828125 3.515625 -1.828125q1.0 0 1.84375 0.359375q0.84375 0.359375 1.25 0.953125q0.421875 0.578125 0.59375 1.375q0.09375 0.515625 0.09375 1.828125l0 6.796875l-1.875 0l0 -6.734375q0 -1.140625 -0.21875 -1.703125q-0.21875 -0.578125 -0.78125 -0.90625q-0.546875 -0.34375 -1.296875 -0.34375q-1.203125 0 -2.078125 0.765625q-0.859375 0.75 -0.859375 2.875l0 6.046875l-1.875 0zm19.03357 0l0 -1.390625q-1.046875 1.640625 -3.09375 1.640625q-1.3125 0 -2.421875 -0.71875q-1.109375 -0.734375 -1.71875 -2.046875q-0.609375 -1.3125 -0.609375 -3.0q0 -1.65625 0.546875 -3.0q0.546875 -1.359375 1.65625 -2.078125q1.109375 -0.71875 2.46875 -0.71875q1.0 0 1.78125 0.421875q0.78125 0.421875 1.265625 1.09375l0 -5.46875l1.875 0l0 15.265625l-1.75 0zm-5.921875 -5.515625q0 2.125 0.890625 3.171875q0.90625 1.046875 2.125 1.046875q1.21875 0 2.078125 -1.0q0.859375 -1.0 0.859375 -3.0625q0 -2.28125 -0.875 -3.34375q-0.875 -1.0625 -2.15625 -1.0625q-1.25 0 -2.09375 1.03125q-0.828125 1.015625 -0.828125 3.21875z" fill-rule="nonzero"/><path fill="#000000" fill-opacity="0.0" d="m390.75317 141.58194l0 0l0 24.525253l0 0l0 -24.525253z" fill-rule="nonzero"/><path fill="#000000" d="m298.28613 162.27638l92.46704 0l0 1.9199982l-92.46704 0l0 -1.9199982z" fill-rule="nonzero"/><path fill="#000000" fill-opacity="0.0" d="m320.49213 167.2218l48.055023 0l0 16.853256l-48.055023 0l0 -16.853256z" fill-rule="nonzero"/><path fill="#000000" d="m323.914 183.56784q-1.0625 -1.34375 -1.796875 -3.140625q-0.734375 -1.8125 -0.734375 -3.734375q0 -1.703125 0.546875 -3.265625q0.640625 -1.8125 1.984375 -3.609375l0.921875 0q-0.859375 1.484375 -1.140625 2.125q-0.4375 0.984375 -0.6875 2.0625q-0.296875 1.34375 -0.296875 2.6875q0 3.453125 2.125 6.875l-0.921875 0zm10.068146 -6.75l1.390625 0.34375q-0.4375 1.703125 -1.578125 2.609375q-1.125 0.890625 -2.765625 0.890625q-1.6875 0 -2.75 -0.6875q-1.0625 -0.6875 -1.625 -2.0q-0.546875 -1.3125 -0.546875 -2.8125q0 -1.640625 0.625 -2.859375q0.625 -1.21875 1.78125 -1.84375q1.15625 -0.640625 2.546875 -0.640625q1.5625 0 2.640625 0.8125q1.078125 0.796875 1.5 2.25l-1.375 0.3125q-0.359375 -1.140625 -1.0625 -1.65625q-0.6875 -0.53125 -1.734375 -0.53125q-1.21875 0 -2.03125 0.578125q-0.8125 0.578125 -1.140625 1.5625q-0.328125 0.96875 -0.328125 2.015625q0 1.328125 0.390625 2.328125q0.390625 1.0 1.21875 1.5q0.828125 0.484375 1.78125 0.484375q1.171875 0 1.96875 -0.671875q0.8125 -0.671875 1.09375 -1.984375zm2.9124146 3.671875l0 -10.484375l1.28125 0l0 10.484375l-1.28125 0zm8.240509 -0.9375q-0.71875 0.609375 -1.375 0.859375q-0.65625 0.25 -1.421875 0.25q-1.25 0 -1.921875 -0.609375q-0.671875 -0.609375 -0.671875 -1.5625q0 -0.5625 0.25 -1.015625q0.25 -0.46875 0.65625 -0.75q0.421875 -0.28125 0.9375 -0.421875q0.375 -0.09375 1.140625 -0.1875q1.5625 -0.1875 2.296875 -0.453125q0.015625 -0.265625 0.015625 -0.328125q0 -0.796875 -0.375 -1.109375q-0.484375 -0.4375 -1.453125 -0.4375q-0.921875 0 -1.359375 0.328125q-0.421875 0.3125 -0.625 1.109375l-1.265625 -0.171875q0.171875 -0.796875 0.5625 -1.296875q0.390625 -0.5 1.140625 -0.765625q0.75 -0.265625 1.71875 -0.265625q0.984375 0 1.59375 0.234375q0.609375 0.21875 0.890625 0.5625q0.28125 0.34375 0.40625 0.875q0.0625 0.328125 0.0625 1.1875l0 1.71875q0 1.796875 0.078125 2.28125q0.078125 0.46875 0.328125 0.90625l-1.34375 0q-0.203125 -0.40625 -0.265625 -0.9375zm-0.109375 -2.875q-0.703125 0.28125 -2.09375 0.484375q-0.796875 0.109375 -1.125 0.265625q-0.328125 0.140625 -0.515625 0.421875q-0.171875 0.265625 -0.171875 0.59375q0 0.515625 0.390625 0.859375q0.390625 0.34375 1.140625 0.34375q0.734375 0 1.3125 -0.3125q0.59375 -0.328125 0.859375 -0.890625q0.203125 -0.4375 0.203125 -1.296875l0 -0.46875zm3.307373 3.8125l0 -7.59375l1.15625 0l0 1.078125q0.8437195 -1.25 2.4218445 -1.25q0.6875 0 1.265625 0.25q0.578125 0.234375 0.859375 0.640625q0.28125 0.40625 0.40625 0.953125q0.0625 0.359375 0.0625 1.25l0 4.671875l-1.28125 0l0 -4.625q0 -0.78125 -0.15625 -1.171875q-0.15625 -0.390625 -0.546875 -0.625q-0.375 -0.234375 -0.890625 -0.234375q-0.8125 0 -1.4218445 0.53125q-0.59375 0.515625 -0.59375 1.96875l0 4.15625l-1.28125 0zm7.9167175 0.625l1.25 0.1875q0.078125 0.578125 0.4375 0.84375q0.46875 0.359375 1.3125 0.359375q0.890625 0 1.375 -0.359375q0.484375 -0.359375 0.65625 -1.0q0.109375 -0.390625 0.09375 -1.65625q-0.84375 1.0 -2.109375 1.0q-1.5625 0 -2.421875 -1.125q-0.859375 -1.140625 -0.859375 -2.71875q0 -1.09375 0.390625 -2.0q0.40625 -0.921875 1.140625 -1.421875q0.75 -0.5 1.765625 -0.5q1.34375 0 2.21875 1.078125l0 -0.90625l1.1875 0l0 6.5625q0 1.78125 -0.359375 2.515625q-0.359375 0.734375 -1.15625 1.15625q-0.78125 0.4375 -1.921875 0.4375q-1.359375 0 -2.203125 -0.609375q-0.828125 -0.609375 -0.796875 -1.84375zm1.0625 -4.5625q0 1.5 0.59375 2.1875q0.59375 0.6875 1.484375 0.6875q0.890625 0 1.484375 -0.6875q0.609375 -0.6875 0.609375 -2.140625q0 -1.390625 -0.625 -2.09375q-0.609375 -0.71875 -1.484375 -0.71875q-0.859375 0 -1.46875 0.703125q-0.59375 0.6875 -0.59375 2.0625zm8.166718 7.015625l-0.921875 0q2.140625 -3.421875 2.140625 -6.875q0 -1.34375 -0.3125 -2.671875q-0.25 -1.0625 -0.671875 -2.046875q-0.28125 -0.65625 -1.15625 -2.15625l0.921875 0q1.34375 1.796875 1.984375 3.609375q0.546875 1.5625 0.546875 3.265625q0 1.921875 -0.734375 3.734375q-0.734375 1.796875 -1.796875 3.140625z" fill-rule="nonzero"/><path fill="#010000" fill-opacity="0.0" d="m368.54715 166.02419l0 0l0 17.58728l0 0l0 -17.58728z" fill-rule="nonzero"/><path fill="#000000" d="m320.49213 181.44305l48.055054 0l0 1.3199921l-48.055054 0l0 -1.3199921z" fill-rule="nonzero"/></g><g filter="url(#shadowFilter-p.3)"><use xlink:href="#p.3" transform="matrix(1.0 0.0 0.0 1.0 2.8284271320333003 2.8284271320333003)"/></g><defs><filter id="shadowFilter-p.3" filterUnits="userSpaceOnUse"><feGaussianBlur in="SourceAlpha" stdDeviation="1.7777777" result="blur"/><feComponentTransfer in="blur" color-interpolation-filters="sRGB"><feFuncR type="linear" slope="0" intercept="0.0"/><feFuncG type="linear" slope="0" intercept="0.0"/><feFuncB type="linear" slope="0" intercept="0.0"/><feFuncA type="linear" slope="0.4" intercept="0"/></feComponentTransfer></filter></defs><g id="p.3"><path fill="#ffffff" d="m219.0503 351.0196l250.93872 0l0 44.541595l-250.93872 0z" fill-rule="evenodd"/><path stroke="#ff0000" stroke-width="1.3333333333333333" stroke-miterlimit="800.0" stroke-linecap="butt" d="m219.0503 351.0196l250.93872 0l0 44.541595l-250.93872 0z" fill-rule="evenodd"/><path fill="#000000" fill-opacity="0.0" d="m299.46814 352.46262l90.10303 0l0 24.525269l-90.10303 0l0 -24.525269z" fill-rule="nonzero"/><path fill="#000000" d="m301.03064 371.7704l0 -15.265625l5.734375 0q1.75 0 2.796875 0.46875q1.0625 0.453125 1.65625 1.421875q0.59375 0.96875 0.59375 2.015625q0 0.96875 -0.53125 1.84375q-0.53125 0.859375 -1.59375 1.390625q1.375 0.40625 2.125 1.390625q0.75 0.96875 0.75 2.3125q0 1.0625 -0.453125 1.984375q-0.453125 0.921875 -1.125 1.421875q-0.671875 0.5 -1.671875 0.765625q-1.0 0.25 -2.453125 0.25l-5.828125 0zm2.015625 -8.859375l3.3125 0q1.34375 0 1.921875 -0.171875q0.765625 -0.234375 1.15625 -0.765625q0.390625 -0.53125 0.390625 -1.328125q0 -0.75 -0.359375 -1.328125q-0.359375 -0.578125 -1.046875 -0.796875q-0.671875 -0.21875 -2.3125 -0.21875l-3.0625 0l0 4.609375zm0 7.0625l3.8125 0q0.96875 0 1.375 -0.078125q0.6875 -0.125 1.15625 -0.40625q0.46875 -0.296875 0.765625 -0.859375q0.3125 -0.5625 0.3125 -1.28125q0 -0.859375 -0.4375 -1.484375q-0.4375 -0.640625 -1.21875 -0.890625q-0.765625 -0.25 -2.234375 -0.25l-3.53125 0l0 5.25zm19.272552 0.4375q-1.046875 0.875 -2.015625 1.25q-0.953125 0.359375 -2.0625 0.359375q-1.8125 0 -2.796875 -0.890625q-0.984375 -0.890625 -0.984375 -2.28125q0 -0.8125 0.375 -1.484375q0.375 -0.671875 0.96875 -1.078125q0.59375 -0.40625 1.34375 -0.609375q0.5625 -0.140625 1.671875 -0.28125q2.265625 -0.265625 3.34375 -0.640625q0.015625 -0.390625 0.015625 -0.5q0 -1.140625 -0.53125 -1.609375q-0.71875 -0.640625 -2.140625 -0.640625q-1.328125 0 -1.953125 0.46875q-0.625 0.46875 -0.9375 1.640625l-1.828125 -0.25q0.25 -1.171875 0.8125 -1.890625q0.578125 -0.734375 1.65625 -1.125q1.09375 -0.390625 2.515625 -0.390625q1.421875 0 2.296875 0.34375q0.890625 0.328125 1.3125 0.828125q0.421875 0.5 0.578125 1.28125q0.09375 0.46875 0.09375 1.71875l0 2.5q0 2.625 0.125 3.3125q0.125 0.6875 0.46875 1.328125l-1.953125 0q-0.296875 -0.578125 -0.375 -1.359375zm-0.15625 -4.1875q-1.015625 0.40625 -3.0625 0.703125q-1.15625 0.171875 -1.640625 0.375q-0.46875 0.203125 -0.734375 0.609375q-0.265625 0.40625 -0.265625 0.890625q0 0.75 0.5625 1.25q0.578125 0.5 1.671875 0.5q1.078125 0 1.921875 -0.46875q0.84375 -0.484375 1.25 -1.296875q0.296875 -0.640625 0.296875 -1.875l0 -0.6875zm12.017944 1.5l1.84375 0.234375q-0.296875 1.90625 -1.546875 2.984375q-1.25 1.078125 -3.0625 1.078125q-2.265625 0 -3.65625 -1.484375q-1.375 -1.484375 -1.375 -4.25q0 -1.796875 0.59375 -3.140625q0.59375 -1.34375 1.8125 -2.015625q1.21875 -0.671875 2.640625 -0.671875q1.796875 0 2.9375 0.921875q1.15625 0.90625 1.484375 2.578125l-1.828125 0.28125q-0.265625 -1.109375 -0.921875 -1.671875q-0.65625 -0.5625 -1.59375 -0.5625q-1.421875 0 -2.3125 1.015625q-0.875 1.015625 -0.875 3.203125q0 2.234375 0.84375 3.25q0.859375 1.0 2.234375 1.0q1.109375 0 1.84375 -0.671875q0.734375 -0.671875 0.9375 -2.078125zm3.4609375 4.046875l0 -15.265625l1.875 0l0 8.703125l4.4375 -4.5l2.421875 0l-4.234375 4.109375l4.65625 6.953125l-2.3125 0l-3.65625 -5.65625l-1.3125 1.265625l0 4.390625l-1.875 0zm9.9140625 -4.578125l0 -1.890625l5.765625 0l0 1.890625l-5.765625 0zm15.4149475 1.015625l1.921875 0.234375q-0.453125 1.703125 -1.6875 2.640625q-1.234375 0.9375 -3.171875 0.9375q-2.421875 0 -3.84375 -1.484375q-1.421875 -1.5 -1.421875 -4.203125q0 -2.796875 1.4375 -4.328125q1.4375 -1.546875 3.734375 -1.546875q2.21875 0 3.609375 1.515625q1.40625 1.5 1.40625 4.25q0 0.15625 0 0.5l-8.25 0q0.109375 1.8125 1.03125 2.78125q0.921875 0.96875 2.3125 0.96875q1.03125 0 1.75 -0.53125q0.734375 -0.546875 1.171875 -1.734375zm-6.15625 -3.03125l6.171875 0q-0.125 -1.390625 -0.703125 -2.09375q-0.90625 -1.078125 -2.328125 -1.078125q-1.296875 0 -2.171875 0.859375q-0.875 0.859375 -0.96875 2.3125zm10.439819 6.59375l0 -11.0625l1.6875 0l0 1.578125q1.21875 -1.828125 3.515625 -1.828125q1.0 0 1.84375 0.359375q0.84375 0.359375 1.25 0.953125q0.421875 0.578125 0.59375 1.375q0.09375 0.515625 0.09375 1.828125l0 6.796875l-1.875 0l0 -6.734375q0 -1.140625 -0.21875 -1.703125q-0.21875 -0.578125 -0.78125 -0.90625q-0.546875 -0.34375 -1.296875 -0.34375q-1.203125 0 -2.078125 0.765625q-0.859375 0.75 -0.859375 2.875l0 6.046875l-1.875 0zm19.03357 0l0 -1.390625q-1.046875 1.640625 -3.09375 1.640625q-1.3125 0 -2.421875 -0.71875q-1.109375 -0.734375 -1.71875 -2.046875q-0.609375 -1.3125 -0.609375 -3.0q0 -1.65625 0.546875 -3.0q0.546875 -1.359375 1.65625 -2.078125q1.109375 -0.71875 2.46875 -0.71875q1.0 0 1.78125 0.421875q0.78125 0.421875 1.265625 1.09375l0 -5.46875l1.875 0l0 15.265625l-1.75 0zm-5.921875 -5.515625q0 2.125 0.890625 3.171875q0.90625 1.046875 2.125 1.046875q1.21875 0 2.078125 -1.0q0.859375 -1.0 0.859375 -3.0625q0 -2.28125 -0.875 -3.34375q-0.875 -1.0625 -2.15625 -1.0625q-1.25 0 -2.09375 1.03125q-0.828125 1.015625 -0.828125 3.21875z" fill-rule="nonzero"/><path fill="#000000" fill-opacity="0.0" d="m389.57117 352.46262l0 0l0 24.525269l0 0l0 -24.525269z" fill-rule="nonzero"/><path fill="#000000" d="m299.46814 373.15707l90.10303 0l0 1.9199829l-90.10303 0l0 -1.9199829z" fill-rule="nonzero"/><path fill="#000000" fill-opacity="0.0" d="m266.3005 378.10248l156.4383 0l0 16.853271l-156.4383 0l0 -16.853271z" fill-rule="nonzero"/><path fill="#000000" d="m269.72238 394.44852q-1.0625 -1.34375 -1.796875 -3.140625q-0.734375 -1.8125 -0.734375 -3.734375q0 -1.703125 0.546875 -3.265625q0.640625 -1.8125 1.984375 -3.609375l0.921875 0q-0.859375 1.484375 -1.140625 2.125q-0.4375 0.984375 -0.6875 2.0625q-0.296875 1.34375 -0.296875 2.6875q0 3.453125 2.125 6.875l-0.921875 0zm2.1150208 -6.453125l1.3125 -0.109375q0.09375 0.78125 0.421875 1.296875q0.34375 0.5 1.0625 0.8125q0.71875 0.3125 1.609375 0.3125q0.796875 0 1.40625 -0.234375q0.609375 -0.234375 0.90625 -0.640625q0.296875 -0.421875 0.296875 -0.90625q0 -0.5 -0.296875 -0.859375q-0.28125 -0.375 -0.9375 -0.625q-0.421875 -0.171875 -1.875 -0.515625q-1.4375 -0.34375 -2.015625 -0.65625q-0.75 -0.390625 -1.125 -0.96875q-0.359375 -0.59375 -0.359375 -1.3125q0 -0.796875 0.4375 -1.484375q0.453125 -0.6875 1.3125 -1.046875q0.875 -0.359375 1.9375 -0.359375q1.171875 0 2.0625 0.375q0.890625 0.375 1.359375 1.109375q0.484375 0.734375 0.515625 1.65625l-1.328125 0.09375q-0.109375 -1.0 -0.734375 -1.5q-0.609375 -0.515625 -1.8125 -0.515625q-1.265625 0 -1.84375 0.46875q-0.578125 0.46875 -0.578125 1.109375q0 0.5625 0.421875 0.9375q0.390625 0.359375 2.078125 0.75q1.703125 0.375 2.328125 0.65625q0.921875 0.421875 1.359375 1.078125q0.4375 0.640625 0.4375 1.484375q0 0.84375 -0.484375 1.59375q-0.484375 0.734375 -1.390625 1.140625q-0.890625 0.40625 -2.015625 0.40625q-1.421875 0 -2.390625 -0.40625q-0.953125 -0.421875 -1.5 -1.25q-0.546875 -0.828125 -0.578125 -1.890625zm15.041229 0.59375l1.265625 0.15625q-0.203125 1.3125 -1.0625 2.0625q-0.84375 0.734375 -2.09375 0.734375q-1.5625 0 -2.515625 -1.015625q-0.9375 -1.03125 -0.9375 -2.921875q0 -1.234375 0.40625 -2.15625q0.40625 -0.921875 1.234375 -1.375q0.84375 -0.46875 1.8125 -0.46875q1.25 0 2.03125 0.625q0.78125 0.625 1.015625 1.765625l-1.265625 0.203125q-0.171875 -0.765625 -0.625 -1.15625q-0.453125 -0.390625 -1.09375 -0.390625q-0.984375 0 -1.59375 0.703125q-0.609375 0.703125 -0.609375 2.203125q0 1.53125 0.578125 2.234375q0.59375 0.6875 1.546875 0.6875q0.75 0 1.265625 -0.453125q0.515625 -0.46875 0.640625 -1.4375zm2.375 2.78125l0 -10.484375l1.28125 0l0 3.75q0.90625 -1.03125 2.28125 -1.03125q0.84375 0 1.46875 0.328125q0.625 0.328125 0.890625 0.921875q0.265625 0.578125 0.265625 1.703125l0 4.8125l-1.28125 0l0 -4.8125q0 -0.96875 -0.421875 -1.40625q-0.421875 -0.4375 -1.1875 -0.4375q-0.578125 0 -1.078125 0.296875q-0.5 0.296875 -0.71875 0.8125q-0.21875 0.5 -0.21875 1.390625l0 4.15625l-1.28125 0zm13.354218 -2.453125l1.328125 0.171875q-0.3125 1.171875 -1.171875 1.8125q-0.84375 0.640625 -2.171875 0.640625q-1.671875 0 -2.65625 -1.015625q-0.96875 -1.03125 -0.96875 -2.890625q0 -1.921875 0.984375 -2.96875q1.0 -1.0625 2.578125 -1.0625q1.515625 0 2.484375 1.03125q0.96875 1.03125 0.96875 2.921875q0 0.109375 -0.015625 0.34375l-5.65625 0q0.0625 1.25 0.703125 1.921875q0.640625 0.65625 1.59375 0.65625q0.703125 0 1.203125 -0.359375q0.5 -0.375 0.796875 -1.203125zm-4.234375 -2.078125l4.25 0q-0.09375 -0.953125 -0.484375 -1.4375q-0.625 -0.75 -1.609375 -0.75q-0.875 0 -1.484375 0.59375q-0.609375 0.59375 -0.671875 1.59375zm12.104248 4.53125l0 -0.953125q-0.71875 1.125 -2.125 1.125q-0.90625 0 -1.671875 -0.5q-0.75 -0.5 -1.171875 -1.390625q-0.421875 -0.90625 -0.421875 -2.078125q0 -1.140625 0.375 -2.0625q0.390625 -0.921875 1.140625 -1.40625q0.765625 -0.5 1.703125 -0.5q0.6875 0 1.21875 0.296875q0.53125 0.28125 0.875 0.734375l0 -3.75l1.28125 0l0 10.484375l-1.203125 0zm-4.0625 -3.796875q0 1.46875 0.609375 2.1875q0.625 0.71875 1.453125 0.71875q0.84375 0 1.4375 -0.6875q0.59375 -0.6875 0.59375 -2.109375q0 -1.5625 -0.609375 -2.28125q-0.59375 -0.734375 -1.484375 -0.734375q-0.84375 0 -1.421875 0.703125q-0.578125 0.703125 -0.578125 2.203125zm12.276093 3.796875l0 -1.109375q-0.890625 1.28125 -2.421875 1.28125q-0.671875 0 -1.25 -0.25q-0.578125 -0.265625 -0.875 -0.65625q-0.28125 -0.390625 -0.390625 -0.953125q-0.078125 -0.375 -0.078125 -1.203125l0 -4.703125l1.28125 0l0 4.203125q0 1.015625 0.078125 1.359375q0.125 0.515625 0.515625 0.8125q0.40625 0.28125 0.984375 0.28125q0.578125 0 1.078125 -0.296875q0.515625 -0.296875 0.71875 -0.8125q0.21875 -0.515625 0.21875 -1.484375l0 -4.0625l1.28125 0l0 7.59375l-1.140625 0zm3.135498 0l0 -10.484375l1.28125 0l0 10.484375l-1.28125 0zm8.490509 -2.453125l1.328125 0.171875q-0.3125 1.171875 -1.171875 1.8125q-0.84375 0.640625 -2.171875 0.640625q-1.671875 0 -2.65625 -1.015625q-0.96875 -1.03125 -0.96875 -2.890625q0 -1.921875 0.984375 -2.96875q1.0 -1.0625 2.578125 -1.0625q1.515625 0 2.484375 1.03125q0.96875 1.03125 0.96875 2.921875q0 0.109375 -0.015625 0.34375l-5.65625 0q0.0625 1.25 0.703125 1.921875q0.640625 0.65625 1.59375 0.65625q0.703125 0 1.203125 -0.359375q0.5 -0.375 0.796875 -1.203125zm-4.234375 -2.078125l4.25 0q-0.09375 -0.953125 -0.484375 -1.4375q-0.625 -0.75 -1.609375 -0.75q-0.875 0 -1.484375 0.59375q-0.609375 0.59375 -0.671875 1.59375zm7.166748 4.53125l0 -7.59375l1.15625 0l0 1.140625q0.453125 -0.796875 0.828125 -1.046875q0.375 -0.265625 0.8125 -0.265625q0.65625 0 1.328125 0.40625l-0.4375 1.203125q-0.46875 -0.28125 -0.953125 -0.28125q-0.421875 0 -0.765625 0.25q-0.328125 0.25 -0.46875 0.703125q-0.21875 0.6875 -0.21875 1.5l0 3.984375l-1.28125 0zm13.921356 -0.9375q-0.71875 0.609375 -1.375 0.859375q-0.65625 0.25 -1.421875 0.25q-1.25 0 -1.921875 -0.609375q-0.671875 -0.609375 -0.671875 -1.5625q0 -0.5625 0.25 -1.015625q0.25 -0.46875 0.65625 -0.75q0.421875 -0.28125 0.9375 -0.421875q0.375 -0.09375 1.140625 -0.1875q1.5625 -0.1875 2.296875 -0.453125q0.015625 -0.265625 0.015625 -0.328125q0 -0.796875 -0.375 -1.109375q-0.484375 -0.4375 -1.453125 -0.4375q-0.921875 0 -1.359375 0.328125q-0.421875 0.3125 -0.625 1.109375l-1.265625 -0.171875q0.171875 -0.796875 0.5625 -1.296875q0.390625 -0.5 1.140625 -0.765625q0.75 -0.265625 1.71875 -0.265625q0.984375 0 1.59375 0.234375q0.609375 0.21875 0.890625 0.5625q0.28125 0.34375 0.40625 0.875q0.0625 0.328125 0.0625 1.1875l0 1.71875q0 1.796875 0.078125 2.28125q0.078125 0.46875 0.328125 0.90625l-1.34375 0q-0.203125 -0.40625 -0.265625 -0.9375zm-0.109375 -2.875q-0.703125 0.28125 -2.09375 0.484375q-0.796875 0.109375 -1.125 0.265625q-0.328125 0.140625 -0.515625 0.421875q-0.171875 0.265625 -0.171875 0.59375q0 0.515625 0.390625 0.859375q0.390625 0.34375 1.140625 0.34375q0.734375 0 1.3125 -0.3125q0.59375 -0.328125 0.859375 -0.890625q0.203125 -0.4375 0.203125 -1.296875l0 -0.46875zm3.307373 3.8125l0 -7.59375l1.15625 0l0 1.078125q0.84375 -1.25 2.421875 -1.25q0.6875 0 1.265625 0.25q0.578125 0.234375 0.859375 0.640625q0.28125 0.40625 0.40625 0.953125q0.0625 0.359375 0.0625 1.25l0 4.671875l-1.28125 0l0 -4.625q0 -0.78125 -0.15625 -1.171875q-0.15625 -0.390625 -0.546875 -0.625q-0.375 -0.234375 -0.890625 -0.234375q-0.8125 0 -1.421875 0.53125q-0.59375 0.515625 -0.59375 1.96875l0 4.15625l-1.28125 0zm13.072968 0l0 -0.953125q-0.71875 1.125 -2.125 1.125q-0.90625 0 -1.671875 -0.5q-0.75 -0.5 -1.171875 -1.390625q-0.421875 -0.90625 -0.421875 -2.078125q0 -1.140625 0.375 -2.0625q0.390625 -0.921875 1.140625 -1.40625q0.765625 -0.5 1.703125 -0.5q0.6875 0 1.21875 0.296875q0.53125 0.28125 0.875 0.734375l0 -3.75l1.28125 0l0 10.484375l-1.203125 0zm-4.0625 -3.796875q0 1.46875 0.609375 2.1875q0.625 0.71875 1.453125 0.71875q0.84375 0 1.4375 -0.6875q0.59375 -0.6875 0.59375 -2.109375q0 -1.5625 -0.609375 -2.28125q-0.59375 -0.734375 -1.484375 -0.734375q-0.84375 0 -1.421875 0.703125q-0.578125 0.703125 -0.578125 2.203125zm12.5512085 3.796875l-1.203125 0l0 -10.484375l1.296875 0l0 3.734375q0.8125 -1.015625 2.078125 -1.015625q0.703125 0 1.328125 0.28125q0.625 0.28125 1.03125 0.796875q0.40625 0.5 0.625 1.234375q0.234375 0.71875 0.234375 1.53125q0 1.96875 -0.96875 3.03125q-0.953125 1.0625 -2.3125 1.0625q-1.34375 0 -2.109375 -1.125l0 0.953125zm-0.015625 -3.859375q0 1.375 0.375 1.984375q0.609375 0.984375 1.640625 0.984375q0.84375 0 1.453125 -0.734375q0.625 -0.734375 0.625 -2.1875q0 -1.484375 -0.59375 -2.1875q-0.59375 -0.71875 -1.421875 -0.71875q-0.84375 0 -1.46875 0.734375q-0.609375 0.734375 -0.609375 2.125zm12.182373 1.40625l1.328125 0.171875q-0.3125 1.171875 -1.171875 1.8125q-0.84375 0.640625 -2.171875 0.640625q-1.671875 0 -2.65625 -1.015625q-0.96875 -1.03125 -0.96875 -2.890625q0 -1.921875 0.984375 -2.96875q1.0 -1.0625 2.578125 -1.0625q1.515625 0 2.484375 1.03125q0.96875 1.03125 0.96875 2.921875q0 0.109375 -0.015625 0.34375l-5.65625 0q0.0625 1.25 0.703125 1.921875q0.640625 0.65625 1.59375 0.65625q0.703125 0 1.203125 -0.359375q0.5 -0.375 0.796875 -1.203125zm-4.234375 -2.078125l4.25 0q-0.09375 -0.953125 -0.484375 -1.4375q-0.625 -0.75 -1.609375 -0.75q-0.875 0 -1.484375 0.59375q-0.609375 0.59375 -0.671875 1.59375zm7.1198425 7.453125l-0.140625 -1.203125q0.421875 0.109375 0.734375 0.109375q0.4375 0 0.6875 -0.140625q0.265625 -0.140625 0.421875 -0.40625q0.125 -0.1875 0.390625 -0.953125q0.046875 -0.109375 0.125 -0.3125l-2.890625 -7.609375l1.390625 0l1.578125 4.390625q0.3125 0.84375 0.546875 1.765625q0.234375 -0.890625 0.53125 -1.734375l1.625 -4.421875l1.296875 0l-2.890625 7.71875q-0.46875 1.25 -0.734375 1.734375q-0.34375 0.625 -0.78125 0.921875q-0.4375 0.296875 -1.0625 0.296875q-0.375 0 -0.828125 -0.15625zm6.90625 -6.71875q0 -2.109375 1.171875 -3.125q0.984375 -0.84375 2.390625 -0.84375q1.578125 0 2.5625 1.03125q1.0 1.015625 1.0 2.828125q0 1.46875 -0.4375 2.3125q-0.4375 0.828125 -1.28125 1.296875q-0.84375 0.46875 -1.84375 0.46875q-1.59375 0 -2.578125 -1.015625q-0.984375 -1.03125 -0.984375 -2.953125zm1.328125 0q0 1.453125 0.625 2.1875q0.640625 0.71875 1.609375 0.71875q0.96875 0 1.59375 -0.71875q0.640625 -0.734375 0.640625 -2.234375q0 -1.40625 -0.640625 -2.125q-0.640625 -0.734375 -1.59375 -0.734375q-0.96875 0 -1.609375 0.71875q-0.625 0.71875 -0.625 2.1875zm7.307373 3.796875l0 -7.59375l1.15625 0l0 1.078125q0.84375 -1.25 2.421875 -1.25q0.6875 0 1.265625 0.25q0.578125 0.234375 0.859375 0.640625q0.28125 0.40625 0.40625 0.953125q0.0625 0.359375 0.0625 1.25l0 4.671875l-1.28125 0l0 -4.625q0 -0.78125 -0.15625 -1.171875q-0.15625 -0.390625 -0.546875 -0.625q-0.375 -0.234375 -0.890625 -0.234375q-0.8125 0 -1.421875 0.53125q-0.59375 0.515625 -0.59375 1.96875l0 4.15625l-1.28125 0zm13.072968 0l0 -0.953125q-0.71875 1.125 -2.125 1.125q-0.90625 0 -1.671875 -0.5q-0.75 -0.5 -1.171875 -1.390625q-0.421875 -0.90625 -0.421875 -2.078125q0 -1.140625 0.375 -2.0625q0.390625 -0.921875 1.140625 -1.40625q0.765625 -0.5 1.703125 -0.5q0.6875 0 1.21875 0.296875q0.53125 0.28125 0.875 0.734375l0 -3.75l1.28125 0l0 10.484375l-1.203125 0zm-4.0625 -3.796875q0 1.46875 0.609375 2.1875q0.625 0.71875 1.453125 0.71875q0.84375 0 1.4375 -0.6875q0.59375 -0.6875 0.59375 -2.109375q0 -1.5625 -0.609375 -2.28125q-0.59375 -0.734375 -1.484375 -0.734375q-0.84375 0 -1.421875 0.703125q-0.578125 0.703125 -0.578125 2.203125zm8.135498 6.875l-0.921875 0q2.140625 -3.421875 2.140625 -6.875q0 -1.34375 -0.3125 -2.671875q-0.25 -1.0625 -0.671875 -2.046875q-0.28125 -0.65625 -1.15625 -2.15625l0.921875 0q1.34375 1.796875 1.984375 3.609375q0.546875 1.5625 0.546875 3.265625q0 1.921875 -0.734375 3.734375q-0.734375 1.796875 -1.796875 3.140625z" fill-rule="nonzero"/><path fill="#010000" fill-opacity="0.0" d="m422.7388 376.90485l0 0l0 17.58728l0 0l0 -17.58728z" fill-rule="nonzero"/><path fill="#000000" d="m266.3005 392.32373l156.4383 0l0 1.3200073l-156.4383 0l0 -1.3200073z" fill-rule="nonzero"/></g><path fill="#92d050" d="m404.80896 250.09323l9.831329 -10.158005l0 4.9156647l0 0c13.164642 -0.8868408 24.09961 -3.4980927 29.509277 -7.046814l0 0c5.0928955 3.3409271 4.7424316 7.156769 -0.95669556 10.416443c-5.699127 3.2596893 -16.158752 5.6267853 -28.552582 6.461685l0 4.9156647z" fill-rule="evenodd"/><path fill="#74a63f" d="m447.73306 242.71974c0 -6.7871094 -19.217773 -12.289154 -42.924103 -12.289154l0 -9.831314l0 0c23.70633 0 42.924103 5.5020447 42.924103 12.289154z" fill-rule="evenodd"/><path fill="#000000" fill-opacity="0.0" d="m447.73306 242.71974c0 -6.7871094 -19.217773 -12.289154 -42.924103 -12.289154l0 -9.831314l0 0c23.70633 0 42.924103 5.5020447 42.924103 12.289154l0 9.831314c0 5.7027893 -13.703308 10.656296 -33.092773 11.962463l0 4.9156647l-9.831329 -9.504639l9.831329 -10.158005l0 4.9156647l0 0c13.164642 -0.8868408 24.09961 -3.4980927 29.509277 -7.046814" fill-rule="evenodd"/><g filter="url(#shadowFilter-p.4)"><use xlink:href="#p.4" transform="matrix(1.0 0.0 0.0 1.0 2.8284271320333003 2.8284271320333003)"/></g><defs><filter id="shadowFilter-p.4" filterUnits="userSpaceOnUse"><feGaussianBlur in="SourceAlpha" stdDeviation="1.7777777" result="blur"/><feComponentTransfer in="blur" color-interpolation-filters="sRGB"><feFuncR type="linear" slope="0" intercept="0.0"/><feFuncG type="linear" slope="0" intercept="0.0"/><feFuncB type="linear" slope="0" intercept="0.0"/><feFuncA type="linear" slope="0.4" intercept="0"/></feComponentTransfer></filter></defs><g id="p.4"><path fill="#ffffff" d="m219.0503 292.43576l250.93872 0l0 50.082916l-250.93872 0z" fill-rule="evenodd"/><path stroke="#ff0000" stroke-width="1.3333333333333333" stroke-miterlimit="800.0" stroke-linecap="butt" d="m219.0503 292.43576l250.93872 0l0 50.082916l-250.93872 0z" fill-rule="evenodd"/><path fill="#000000" fill-opacity="0.0" d="m275.77094 292.6494l137.49744 0l0 24.525269l-137.49744 0l0 -24.525269z" fill-rule="nonzero"/><path fill="#000000" d="m277.52094 311.9572l0 -15.265625l10.296875 0l0 1.796875l-8.28125 0l0 4.734375l7.171875 0l0 1.796875l-7.171875 0l0 6.9375l-2.015625 0zm12.918701 0l0 -15.265625l5.765625 0q1.515625 0 2.328125 0.140625q1.109375 0.1875 1.875 0.71875q0.765625 0.53125 1.21875 1.484375q0.46875 0.9375 0.46875 2.078125q0 1.9375 -1.25 3.296875q-1.234375 1.34375 -4.46875 1.34375l-3.90625 0l0 6.203125l-2.03125 0zm2.03125 -8.015625l3.9375 0q1.96875 0 2.78125 -0.71875q0.828125 -0.734375 0.828125 -2.046875q0 -0.96875 -0.484375 -1.640625q-0.484375 -0.6875 -1.28125 -0.90625q-0.5 -0.140625 -1.875 -0.140625l-3.90625 0l0 5.453125zm19.350677 2.03125l0 -1.796875l6.453125 -0.015625l0 5.671875q-1.484375 1.1875 -3.0625 1.796875q-1.578125 0.59375 -3.25 0.59375q-2.25 0 -4.09375 -0.96875q-1.828125 -0.96875 -2.765625 -2.78125q-0.9375 -1.828125 -0.9375 -4.078125q0 -2.234375 0.921875 -4.15625q0.9375 -1.9375 2.6875 -2.875q1.75 -0.9375 4.03125 -0.9375q1.65625 0 2.984375 0.546875q1.34375 0.53125 2.09375 1.5q0.765625 0.953125 1.171875 2.484375l-1.828125 0.5q-0.34375 -1.15625 -0.859375 -1.828125q-0.5 -0.671875 -1.453125 -1.0625q-0.9375 -0.40625 -2.09375 -0.40625q-1.390625 0 -2.40625 0.421875q-1.0 0.421875 -1.625 1.109375q-0.625 0.6875 -0.96875 1.515625q-0.578125 1.40625 -0.578125 3.0625q0 2.046875 0.703125 3.421875q0.703125 1.375 2.046875 2.046875q1.34375 0.65625 2.859375 0.65625q1.3125 0 2.546875 -0.5q1.25 -0.515625 1.90625 -1.078125l0 -2.84375l-4.484375 0zm7.7615967 5.984375l5.859375 -15.265625l2.1875 0l6.234375 15.265625l-2.296875 0l-1.78125 -4.625l-6.375 0l-1.6875 4.625l-2.140625 0zm4.40625 -6.265625l5.171875 0l-1.59375 -4.234375q-0.71875 -1.921875 -1.078125 -3.15625q-0.296875 1.46875 -0.828125 2.90625l-1.671875 4.484375zm15.552368 1.359375l1.90625 -0.171875q0.140625 1.15625 0.625 1.890625q0.5 0.734375 1.546875 1.1875q1.046875 0.453125 2.34375 0.453125q1.15625 0 2.03125 -0.34375q0.890625 -0.34375 1.3125 -0.9375q0.4375 -0.609375 0.4375 -1.3125q0 -0.71875 -0.421875 -1.25q-0.40625 -0.546875 -1.359375 -0.90625q-0.609375 -0.25 -2.71875 -0.75q-2.109375 -0.5 -2.953125 -0.953125q-1.09375 -0.578125 -1.625 -1.421875q-0.53125 -0.84375 -0.53125 -1.890625q0 -1.15625 0.65625 -2.15625q0.65625 -1.015625 1.90625 -1.53125q1.265625 -0.53125 2.8125 -0.53125q1.6875 0 2.984375 0.546875q1.296875 0.546875 1.984375 1.609375q0.703125 1.0625 0.765625 2.40625l-1.9375 0.15625q-0.15625 -1.453125 -1.0625 -2.1875q-0.890625 -0.75 -2.65625 -0.75q-1.828125 0 -2.671875 0.671875q-0.84375 0.671875 -0.84375 1.625q0 0.8125 0.59375 1.34375q0.59375 0.53125 3.046875 1.09375q2.46875 0.5625 3.390625 0.96875q1.328125 0.625 1.953125 1.5625q0.640625 0.9375 0.640625 2.171875q0 1.21875 -0.703125 2.296875q-0.6875 1.078125 -2.0 1.6875q-1.296875 0.59375 -2.9375 0.59375q-2.078125 0 -3.484375 -0.609375q-1.390625 -0.609375 -2.1875 -1.8125q-0.796875 -1.21875 -0.84375 -2.75zm14.678833 9.140625l0 -15.296875l1.703125 0l0 1.4375q0.609375 -0.84375 1.359375 -1.265625q0.765625 -0.421875 1.859375 -0.421875q1.40625 0 2.484375 0.734375q1.09375 0.71875 1.640625 2.046875q0.546875 1.328125 0.546875 2.921875q0 1.6875 -0.609375 3.046875q-0.59375 1.359375 -1.765625 2.09375q-1.15625 0.71875 -2.4375 0.71875q-0.9375 0 -1.6875 -0.390625q-0.734375 -0.40625 -1.21875 -1.0l0 5.375l-1.875 0zm1.703125 -9.703125q0 2.140625 0.859375 3.15625q0.859375 1.015625 2.09375 1.015625q1.25 0 2.140625 -1.046875q0.890625 -1.0625 0.890625 -3.28125q0 -2.109375 -0.875 -3.15625q-0.859375 -1.0625 -2.078125 -1.0625q-1.1875 0 -2.109375 1.125q-0.921875 1.109375 -0.921875 3.25zm17.736694 1.90625l1.921875 0.234375q-0.453125 1.703125 -1.6875 2.640625q-1.234375 0.9375 -3.171875 0.9375q-2.421875 0 -3.84375 -1.484375q-1.421875 -1.5 -1.421875 -4.203125q0 -2.796875 1.4375 -4.328125q1.4375 -1.546875 3.734375 -1.546875q2.21875 0 3.609375 1.515625q1.40625 1.5 1.40625 4.25q0 0.15625 0 0.5l-8.25 0q0.109375 1.8125 1.03125 2.78125q0.921875 0.96875 2.3125 0.96875q1.03125 0 1.75 -0.53125q0.734375 -0.546875 1.171875 -1.734375zm-6.15625 -3.03125l6.171875 0q-0.125 -1.390625 -0.703125 -2.09375q-0.90625 -1.078125 -2.328125 -1.078125q-1.296875 0 -2.171875 0.859375q-0.875 0.859375 -0.96875 2.3125zm17.65857 2.546875l1.84375 0.234375q-0.296875 1.90625 -1.546875 2.984375q-1.25 1.078125 -3.0625 1.078125q-2.265625 0 -3.65625 -1.484375q-1.375 -1.484375 -1.375 -4.25q0 -1.796875 0.59375 -3.140625q0.59375 -1.34375 1.8125 -2.015625q1.21875 -0.671875 2.640625 -0.671875q1.796875 0 2.9375 0.921875q1.15625 0.90625 1.484375 2.578125l-1.828125 0.28125q-0.265625 -1.109375 -0.921875 -1.671875q-0.65625 -0.5625 -1.59375 -0.5625q-1.421875 0 -2.3125 1.015625q-0.875 1.015625 -0.875 3.203125q0 2.234375 0.84375 3.25q0.859375 1.0 2.234375 1.0q1.109375 0 1.84375 -0.671875q0.734375 -0.671875 0.9375 -2.078125zm3.4609375 -9.0625l0 -2.15625l1.875 0l0 2.15625l-1.875 0zm0 13.109375l0 -11.0625l1.875 0l0 11.0625l-1.875 0zm5.175934 0l0 -9.609375l-1.65625 0l0 -1.453125l1.65625 0l0 -1.171875q0 -1.109375 0.1875 -1.65625q0.28125 -0.734375 0.953125 -1.1875q0.6875 -0.453125 1.921875 -0.453125q0.78125 0 1.75 0.1875l-0.28125 1.640625q-0.59375 -0.109375 -1.109375 -0.109375q-0.859375 0 -1.21875 0.375q-0.34375 0.359375 -0.34375 1.359375l0 1.015625l2.15625 0l0 1.453125l-2.15625 0l0 9.609375l-1.859375 0zm5.4881287 -13.109375l0 -2.15625l1.875 0l0 2.15625l-1.875 0zm0 13.109375l0 -11.0625l1.875 0l0 11.0625l-1.875 0zm11.941559 -4.046875l1.84375 0.234375q-0.296875 1.90625 -1.546875 2.984375q-1.25 1.078125 -3.0625 1.078125q-2.265625 0 -3.65625 -1.484375q-1.375 -1.484375 -1.375 -4.25q0 -1.796875 0.59375 -3.140625q0.59375 -1.34375 1.8125 -2.015625q1.21875 -0.671875 2.640625 -0.671875q1.796875 0 2.9375 0.921875q1.15625 0.90625 1.484375 2.578125l-1.828125 0.28125q-0.265625 -1.109375 -0.921875 -1.671875q-0.65625 -0.5625 -1.59375 -0.5625q-1.421875 0 -2.3125 1.015625q-0.875 1.015625 -0.875 3.203125q0 2.234375 0.84375 3.25q0.859375 1.0 2.234375 1.0q1.109375 0 1.84375 -0.671875q0.734375 -0.671875 0.9375 -2.078125z" fill-rule="nonzero"/><path fill="#000000" fill-opacity="0.0" d="m413.26837 292.6494l5.9256287 0l0 24.525269l-5.9256287 0l0 -24.525269z" fill-rule="nonzero"/><path fill="#000000" d="m275.77094 313.34387l137.49744 0l0 1.9200134l-137.49744 0l0 -1.9200134z" fill-rule="nonzero"/><path fill="#000000" fill-opacity="0.0" d="m236.05127 318.6494l216.93677 0l0 24.525269l-216.93677 0l0 -24.525269z" fill-rule="nonzero"/><path fill="#000000" d="m237.08252 330.5197q0 -3.796875 2.03125 -5.9375q2.046875 -2.15625 5.28125 -2.15625q2.109375 0 3.796875 1.015625q1.703125 1.0 2.59375 2.8125q0.890625 1.796875 0.890625 4.09375q0 2.3125 -0.9375 4.15625q-0.9375 1.828125 -2.65625 2.78125q-1.703125 0.9375 -3.703125 0.9375q-2.15625 0 -3.859375 -1.046875q-1.6875 -1.046875 -2.5625 -2.84375q-0.875 -1.796875 -0.875 -3.8125zm2.078125 0.03125q0 2.765625 1.484375 4.359375q1.484375 1.578125 3.734375 1.578125q2.28125 0 3.75 -1.59375q1.46875 -1.609375 1.46875 -4.5625q0 -1.859375 -0.640625 -3.25q-0.625 -1.390625 -1.84375 -2.15625q-1.203125 -0.765625 -2.703125 -0.765625q-2.15625 0 -3.703125 1.484375q-1.546875 1.46875 -1.546875 4.90625zm14.886581 11.640625l0 -15.296875l1.703125 0l0 1.4375q0.60939026 -0.84375 1.3593903 -1.265625q0.765625 -0.421875 1.859375 -0.421875q1.40625 0 2.484375 0.734375q1.09375 0.71875 1.640625 2.046875q0.546875 1.328125 0.546875 2.921875q0 1.6875 -0.609375 3.046875q-0.59375 1.359375 -1.765625 2.09375q-1.15625 0.71875 -2.4375 0.71875q-0.9375 0 -1.6875 -0.390625q-0.734375 -0.40625 -1.2187653 -1.0l0 5.375l-1.875 0zm1.703125 -9.703125q0 2.140625 0.85939026 3.15625q0.859375 1.015625 2.09375 1.015625q1.25 0 2.140625 -1.046875q0.890625 -1.0625 0.890625 -3.28125q0 -2.109375 -0.875 -3.15625q-0.859375 -1.0625 -2.078125 -1.0625q-1.1875 0 -2.109375 1.125q-0.92189026 1.109375 -0.92189026 3.25zm14.252335 3.796875l0.265625 1.65625q-0.78125 0.15625 -1.40625 0.15625q-1.03125 0 -1.59375 -0.3125q-0.5625 -0.328125 -0.796875 -0.84375q-0.21875 -0.53125 -0.21875 -2.21875l0 -6.375l-1.375 0l0 -1.453125l1.375 0l0 -2.734375l1.859375 -1.125l0 3.859375l1.890625 0l0 1.453125l-1.890625 0l0 6.46875q0 0.8125 0.09375 1.046875q0.109375 0.21875 0.328125 0.359375q0.234375 0.125 0.640625 0.125q0.3125 0 0.828125 -0.0625zm1.8475037 -11.4375l0 -2.15625l1.875 0l0 2.15625l-1.875 0zm0 13.109375l0 -11.0625l1.875 0l0 11.0625l-1.875 0zm4.722809 0l0 -11.0625l1.671875 0l0 1.546875q0.53125 -0.8125 1.390625 -1.296875q0.859375 -0.5 1.96875 -0.5q1.234375 0 2.015625 0.515625q0.78125 0.5 1.109375 1.421875q1.3125 -1.9375 3.40625 -1.9375q1.65625 0 2.53125 0.921875q0.890625 0.90625 0.890625 2.796875l0 7.59375l-1.859375 0l0 -6.96875q0 -1.125 -0.1875 -1.609375q-0.1875 -0.5 -0.671875 -0.796875q-0.46875 -0.3125 -1.109375 -0.3125q-1.171875 0 -1.9375 0.78125q-0.765625 0.765625 -0.765625 2.484375l0 6.421875l-1.875 0l0 -7.1875q0 -1.25 -0.46875 -1.875q-0.453125 -0.625 -1.5 -0.625q-0.78125 0 -1.453125 0.421875q-0.671875 0.40625 -0.984375 1.21875q-0.296875 0.796875 -0.296875 2.3125l0 5.734375l-1.875 0zm17.782135 -13.109375l0 -2.15625l1.875 0l0 2.15625l-1.875 0zm0 13.109375l0 -11.0625l1.875 0l0 11.0625l-1.875 0zm3.7384338 0l0 -1.515625l7.03125 -8.09375q-1.1875 0.0625 -2.109375 0.0625l-4.515625 0l0 -1.515625l9.046875 0l0 1.234375l-5.984375 7.03125l-1.15625 1.28125q1.25 -0.09375 2.359375 -0.09375l5.109375 0l0 1.609375l-9.78125 0zm18.867188 -1.359375q-1.046875 0.875 -2.015625 1.25q-0.953125 0.359375 -2.0625 0.359375q-1.8125 0 -2.796875 -0.890625q-0.984375 -0.890625 -0.984375 -2.28125q0 -0.8125 0.375 -1.484375q0.375 -0.671875 0.96875 -1.078125q0.59375 -0.40625 1.34375 -0.609375q0.5625 -0.140625 1.671875 -0.28125q2.265625 -0.265625 3.34375 -0.640625q0.015625 -0.390625 0.015625 -0.5q0 -1.140625 -0.53125 -1.609375q-0.71875 -0.640625 -2.140625 -0.640625q-1.328125 0 -1.953125 0.46875q-0.625 0.46875 -0.9375 1.640625l-1.828125 -0.25q0.25 -1.171875 0.8125 -1.890625q0.578125 -0.734375 1.65625 -1.125q1.09375 -0.390625 2.515625 -0.390625q1.421875 0 2.296875 0.34375q0.890625 0.328125 1.3125 0.828125q0.421875 0.5 0.578125 1.28125q0.09375 0.46875 0.09375 1.71875l0 2.5q0 2.625 0.125 3.3125q0.125 0.6875 0.46875 1.328125l-1.953125 0q-0.296875 -0.578125 -0.375 -1.359375zm-0.15625 -4.1875q-1.015625 0.40625 -3.0625 0.703125q-1.15625 0.171875 -1.640625 0.375q-0.46875 0.203125 -0.734375 0.609375q-0.265625 0.40625 -0.265625 0.890625q0 0.75 0.5625 1.25q0.578125 0.5 1.671875 0.5q1.078125 0 1.921875 -0.46875q0.84375 -0.484375 1.25 -1.296875q0.296875 -0.640625 0.296875 -1.875l0 -0.6875zm8.892944 3.875l0.265625 1.65625q-0.78125 0.15625 -1.40625 0.15625q-1.03125 0 -1.59375 -0.3125q-0.5625 -0.328125 -0.796875 -0.84375q-0.21875 -0.53125 -0.21875 -2.21875l0 -6.375l-1.375 0l0 -1.453125l1.375 0l0 -2.734375l1.859375 -1.125l0 3.859375l1.890625 0l0 1.453125l-1.890625 0l0 6.46875q0 0.8125 0.09375 1.046875q0.109375 0.21875 0.328125 0.359375q0.234375 0.125 0.640625 0.125q0.3125 0 0.828125 -0.0625zm1.8475037 -11.4375l0 -2.15625l1.875 0l0 2.15625l-1.875 0zm0 13.109375l0 -11.0625l1.875 0l0 11.0625l-1.875 0zm4.019684 -5.53125q0 -3.078125 1.71875 -4.546875q1.421875 -1.234375 3.46875 -1.234375q2.28125 0 3.71875 1.5q1.453125 1.484375 1.453125 4.125q0 2.140625 -0.640625 3.359375q-0.625 1.21875 -1.859375 1.90625q-1.21875 0.671875 -2.671875 0.671875q-2.3125 0 -3.75 -1.484375q-1.4375 -1.5 -1.4375 -4.296875zm1.9375 0q0 2.125 0.921875 3.1875q0.921875 1.046875 2.328125 1.046875q1.40625 0 2.328125 -1.0625q0.921875 -1.0625 0.921875 -3.234375q0 -2.046875 -0.9375 -3.109375q-0.921875 -1.0625 -2.3125 -1.0625q-1.40625 0 -2.328125 1.0625q-0.921875 1.046875 -0.921875 3.171875zm10.627319 5.53125l0 -11.0625l1.6875 0l0 1.578125q1.21875 -1.828125 3.515625 -1.828125q1.0 0 1.84375 0.359375q0.84375 0.359375 1.25 0.953125q0.421875 0.578125 0.59375 1.375q0.09375 0.515625 0.09375 1.828125l0 6.796875l-1.875 0l0 -6.734375q0 -1.140625 -0.21875 -1.703125q-0.21875 -0.578125 -0.78125 -0.90625q-0.546875 -0.34375 -1.296875 -0.34375q-1.203125 0 -2.078125 0.765625q-0.859375 0.75 -0.859375 2.875l0 6.046875l-1.875 0zm10.455444 0.265625l4.421875 -15.796875l1.5 0l-4.40625 15.796875l-1.515625 0zm13.413788 -0.265625l0 -15.265625l2.015625 0l0 13.46875l7.515625 0l0 1.796875l-9.53125 0zm11.002319 -5.53125q0 -3.078125 1.71875 -4.546875q1.421875 -1.234375 3.46875 -1.234375q2.28125 0 3.71875 1.5q1.453125 1.484375 1.453125 4.125q0 2.140625 -0.640625 3.359375q-0.625 1.21875 -1.859375 1.90625q-1.21875 0.671875 -2.671875 0.671875q-2.3125 0 -3.75 -1.484375q-1.4375 -1.5 -1.4375 -4.296875zm1.9375 0q0 2.125 0.921875 3.1875q0.921875 1.046875 2.328125 1.046875q1.40625 0 2.328125 -1.0625q0.921875 -1.0625 0.921875 -3.234375q0 -2.046875 -0.9375 -3.109375q-0.921875 -1.0625 -2.3125 -1.0625q-1.40625 0 -2.328125 1.0625q-0.921875 1.046875 -0.921875 3.171875zm12.674194 5.53125l-3.390625 -11.0625l1.9375 0l1.765625 6.390625l0.65625 2.375q0.03125 -0.1875 0.5625 -2.28125l1.765625 -6.484375l1.921875 0l1.65625 6.421875l0.546875 2.109375l0.640625 -2.140625l1.890625 -6.390625l1.828125 0l-3.453125 11.0625l-1.953125 0l-1.75 -6.625l-0.4375 -1.890625l-2.234375 8.515625l-1.953125 0zm20.933746 -3.5625l1.921875 0.234375q-0.453125 1.703125 -1.6875 2.640625q-1.234375 0.9375 -3.171875 0.9375q-2.421875 0 -3.84375 -1.484375q-1.421875 -1.5 -1.421875 -4.203125q0 -2.796875 1.4375 -4.328125q1.4375 -1.546875 3.734375 -1.546875q2.21875 0 3.609375 1.515625q1.40625 1.5 1.40625 4.25q0 0.15625 0 0.5l-8.25 0q0.109375 1.8125 1.03125 2.78125q0.921875 0.96875 2.3125 0.96875q1.03125 0 1.75 -0.53125q0.734375 -0.546875 1.171875 -1.734375zm-6.15625 -3.03125l6.171875 0q-0.125 -1.390625 -0.703125 -2.09375q-0.90625 -1.078125 -2.328125 -1.078125q-1.296875 0 -2.171875 0.859375q-0.875 0.859375 -0.96875 2.3125zm10.424194 6.59375l0 -11.0625l1.6875 0l0 1.671875q0.640625 -1.171875 1.1875 -1.546875q0.546875 -0.375 1.203125 -0.375q0.953125 0 1.921875 0.609375l-0.640625 1.734375q-0.6875 -0.40625 -1.375 -0.40625q-0.609375 0 -1.109375 0.375q-0.484375 0.359375 -0.6875 1.015625q-0.3125 1.0 -0.3125 2.1875l0 5.796875l-1.875 0zm7.1336975 -13.109375l0 -2.15625l1.875 0l0 2.15625l-1.875 0zm0 13.109375l0 -11.0625l1.875 0l0 11.0625l-1.875 0zm4.722809 0l0 -11.0625l1.6875 0l0 1.578125q1.21875 -1.828125 3.515625 -1.828125q1.0 0 1.84375 0.359375q0.84375 0.359375 1.25 0.953125q0.421875 0.578125 0.59375 1.375q0.09375 0.515625 0.09375 1.828125l0 6.796875l-1.875 0l0 -6.734375q0 -1.140625 -0.21875 -1.703125q-0.21875 -0.578125 -0.78125 -0.90625q-0.546875 -0.34375 -1.296875 -0.34375q-1.203125 0 -2.078125 0.765625q-0.859375 0.75 -0.859375 2.875l0 6.046875l-1.875 0zm11.517944 0.921875l1.828125 0.265625q0.109375 0.84375 0.625 1.234375q0.703125 0.515625 1.90625 0.515625q1.3125 0 2.015625 -0.53125q0.703125 -0.515625 0.953125 -1.453125q0.15625 -0.5625 0.140625 -2.40625q-1.234375 1.453125 -3.0625 1.453125q-2.28125 0 -3.53125 -1.640625q-1.25 -1.65625 -1.25 -3.953125q0 -1.578125 0.5625 -2.921875q0.578125 -1.34375 1.671875 -2.0625q1.09375 -0.734375 2.5625 -0.734375q1.953125 0 3.21875 1.578125l0 -1.328125l1.734375 0l0 9.5625q0 2.578125 -0.53125 3.65625q-0.515625 1.078125 -1.65625 1.703125q-1.140625 0.625 -2.8125 0.625q-1.984375 0 -3.203125 -0.890625q-1.21875 -0.890625 -1.171875 -2.671875zm1.546875 -6.65625q0 2.1875 0.859375 3.1875q0.875 1.0 2.171875 1.0q1.296875 0 2.171875 -1.0q0.875 -1.0 0.875 -3.125q0 -2.03125 -0.90625 -3.0625q-0.890625 -1.03125 -2.171875 -1.03125q-1.25 0 -2.125 1.015625q-0.875 1.015625 -0.875 3.015625z" fill-rule="nonzero"/><path fill="#000000" fill-opacity="0.0" d="m452.98804 318.6494l0 0l0 24.525269l0 0l0 -24.525269z" fill-rule="nonzero"/><path fill="#000000" d="m236.05127 339.34387l216.93677 0l0 1.9200134l-216.93677 0l0 -1.9200134z" fill-rule="nonzero"/></g><g filter="url(#shadowFilter-p.5)"><use xlink:href="#p.5" transform="matrix(1.0 0.0 0.0 1.0 2.8284271320333003 2.8284271320333003)"/></g><defs><filter id="shadowFilter-p.5" filterUnits="userSpaceOnUse"><feGaussianBlur in="SourceAlpha" stdDeviation="1.7777777" result="blur"/><feComponentTransfer in="blur" color-interpolation-filters="sRGB"><feFuncR type="linear" slope="0" intercept="0.0"/><feFuncG type="linear" slope="0" intercept="0.0"/><feFuncB type="linear" slope="0" intercept="0.0"/><feFuncA type="linear" slope="0.4" intercept="0"/></feComponentTransfer></filter></defs><g id="p.5"><path fill="#ffffff" d="m227.73616 218.99362l0 0c0 -4.099945 52.28575 -7.4235992 116.78349 -7.4235992c64.49774 0 116.78348 3.3236542 116.78348 7.4235992l0 29.694397c0 4.099945 -52.285736 7.4236145 -116.78348 7.4236145c-64.49774 0 -116.78349 -3.3236694 -116.78349 -7.4236145z" fill-rule="evenodd"/><path fill="#000000" fill-opacity="0.0" d="m461.30313 218.99362l0 0c0 4.099945 -52.285736 7.4235992 -116.78348 7.4235992c-64.49774 0 -116.78349 -3.3236542 -116.78349 -7.4235992" fill-rule="evenodd"/><path fill="#000000" fill-opacity="0.0" d="m227.73616 218.99362l0 0c0 -4.099945 52.28575 -7.4235992 116.78349 -7.4235992c64.49774 0 116.78348 3.3236542 116.78348 7.4235992l0 29.694397c0 4.099945 -52.285736 7.4236145 -116.78348 7.4236145c-64.49774 0 -116.78349 -3.3236694 -116.78349 -7.4236145z" fill-rule="evenodd"/><path stroke="#ff0000" stroke-width="1.3333333333333333" stroke-miterlimit="8.0" stroke-linecap="butt" d="m461.30313 218.99362l0 0c0 4.099945 -52.285736 7.4235992 -116.78348 7.4235992c-64.49774 0 -116.78349 -3.3236542 -116.78349 -7.4235992" fill-rule="evenodd"/><path stroke="#ff0000" stroke-width="1.3333333333333333" stroke-miterlimit="8.0" stroke-linecap="butt" d="m227.73616 218.99362l0 0c0 -4.099945 52.28575 -7.4235992 116.78349 -7.4235992c64.49774 0 116.78348 3.3236542 116.78348 7.4235992l0 29.694397c0 4.099945 -52.285736 7.4236145 -116.78348 7.4236145c-64.49774 0 -116.78349 -3.3236694 -116.78349 -7.4236145z" fill-rule="evenodd"/><path fill="#000000" fill-opacity="0.0" d="m303.82663 225.72484l81.38602 0l0 24.525253l-81.38602 0l0 -24.525253z" fill-rule="nonzero"/><path fill="#000000" d="m305.38913 245.03262l0 -15.265625l2.015625 0l0 13.46875l7.515625 0l0 1.796875l-9.53125 0zm11.861694 0l0 -15.265625l2.015625 0l0 13.46875l7.515625 0l0 1.796875l-9.53125 0zm14.731506 0l-5.921875 -15.265625l2.1875 0l3.96875 11.09375q0.484375 1.328125 0.796875 2.5q0.359375 -1.25 0.828125 -2.5l4.125 -11.09375l2.0625 0l-5.984375 15.265625l-2.0625 0zm9.7881775 0l0 -15.265625l3.046875 0l3.609375 10.8125q0.5 1.5 0.734375 2.25q0.265625 -0.828125 0.8125 -2.4375l3.65625 -10.625l2.71875 0l0 15.265625l-1.953125 0l0 -12.78125l-4.4375 12.78125l-1.8125 0l-4.421875 -13.0l0 13.0l-1.953125 0zm24.098389 0l0 -15.265625l2.03125 0l0 15.265625l-2.03125 0zm5.6131287 0l0 -15.265625l6.78125 0q2.03125 0 3.09375 0.421875q1.0625 0.40625 1.6875 1.453125q0.640625 1.03125 0.640625 2.296875q0 1.609375 -1.046875 2.734375q-1.046875 1.109375 -3.25 1.40625q0.8125 0.390625 1.21875 0.765625q0.890625 0.8125 1.671875 2.03125l2.65625 4.15625l-2.53125 0l-2.015625 -3.171875q-0.890625 -1.375 -1.46875 -2.109375q-0.5625 -0.734375 -1.015625 -1.015625q-0.453125 -0.296875 -0.921875 -0.40625q-0.34375 -0.078125 -1.125 -0.078125l-2.34375 0l0 6.78125l-2.03125 0zm2.03125 -8.53125l4.34375 0q1.375 0 2.15625 -0.28125q0.78125 -0.296875 1.1875 -0.921875q0.40625 -0.625 0.40625 -1.359375q0 -1.09375 -0.78125 -1.78125q-0.78125 -0.703125 -2.484375 -0.703125l-4.828125 0l0 5.046875z" fill-rule="nonzero"/><path fill="#000000" fill-opacity="0.0" d="m385.21265 225.72484l0 0l0 24.525253l0 0l0 -24.525253z" fill-rule="nonzero"/><path fill="#000000" d="m303.82663 246.4193l81.38605 0l0 1.9199982l-81.38605 0l0 -1.9199982z" fill-rule="nonzero"/></g><path fill="#00495f" d="m232.23875 78.13487l0 0c0 3.017601 25.895401 5.4638443 57.838974 5.4638443c31.943573 0 57.83896 -2.4462433 57.83896 -5.4638443l0 0c0 -3.017601 25.895386 -5.463852 57.83896 -5.463852c31.943573 0 57.83896 2.446251 57.83896 5.463852l0 43.7108c0 -3.017601 -25.895386 -5.463852 -57.83896 -5.463852c-31.943573 0 -57.83896 2.446251 -57.83896 5.463852c0 3.017601 -25.895386 5.463852 -57.83896 5.463852c-31.943573 0 -57.838974 -2.446251 -57.838974 -5.463852z" fill-rule="evenodd"/><path fill="#000000" fill-opacity="0.0" d="m317.09607 88.16248l61.641235 0l0 24.52526l-61.641235 0l0 -24.52526z" fill-rule="nonzero"/><path fill="#ffffff" d="m329.62732 102.11089l2.03125 0.515625q-0.640625 2.484375 -2.296875 3.796875q-1.640625 1.3125 -4.03125 1.3125q-2.46875 0 -4.015625 -1.0q-1.546875 -1.015625 -2.359375 -2.921875q-0.796875 -1.90625 -0.796875 -4.09375q0 -2.390625 0.90625 -4.15625q0.921875 -1.78125 2.59375 -2.703125q1.6875 -0.921875 3.703125 -0.921875q2.296875 0 3.859375 1.171875q1.5625 1.171875 2.171875 3.28125l-1.984375 0.46875q-0.53125 -1.671875 -1.546875 -2.421875q-1.0 -0.765625 -2.53125 -0.765625q-1.765625 0 -2.953125 0.84375q-1.171875 0.84375 -1.65625 2.265625q-0.484375 1.421875 -0.484375 2.921875q0 1.953125 0.5625 3.40625q0.578125 1.453125 1.765625 2.171875q1.203125 0.71875 2.609375 0.71875q1.6875 0 2.859375 -0.96875q1.1875 -0.984375 1.59375 -2.921875zm2.8712463 5.625l4.421875 -15.796875l1.5 0l-4.40625 15.796875l-1.515625 0zm18.45691 -5.625l2.03125 0.515625q-0.640625 2.484375 -2.296875 3.796875q-1.640625 1.3125 -4.03125 1.3125q-2.46875 0 -4.015625 -1.0q-1.546875 -1.015625 -2.359375 -2.921875q-0.796875 -1.90625 -0.796875 -4.09375q0 -2.390625 0.90625 -4.15625q0.921875 -1.78125 2.59375 -2.703125q1.6875 -0.921875 3.703125 -0.921875q2.296875 0 3.859375 1.171875q1.5625 1.171875 2.171875 3.28125l-1.984375 0.46875q-0.53125 -1.671875 -1.546875 -2.421875q-1.0 -0.765625 -2.53125 -0.765625q-1.765625 0 -2.953125 0.84375q-1.171875 0.84375 -1.65625 2.265625q-0.484375 1.421875 -0.484375 2.921875q0 1.953125 0.5625 3.40625q0.578125 1.453125 1.765625 2.171875q1.203125 0.71875 2.609375 0.71875q1.6875 0 2.859375 -0.96875q1.1875 -0.984375 1.59375 -2.921875zm8.214996 2.890625l0 -4.1875l-4.15625 0l0 -1.75l4.15625 0l0 -4.15625l1.765625 0l0 4.15625l4.15625 0l0 1.75l-4.15625 0l0 4.1875l-1.765625 0zm12.455292 0l0 -4.1875l-4.15625 0l0 -1.75l4.15625 0l0 -4.15625l1.765625 0l0 4.15625l4.15625 0l0 1.75l-4.15625 0l0 4.1875l-1.765625 0z" fill-rule="nonzero"/><path fill="#010000" fill-opacity="0.0" d="m378.7373 86.41956l0 0l0 25.593567l0 0l0 -25.593567z" fill-rule="nonzero"/><path fill="#ffffff" d="m317.09607 108.85694l61.641235 0l0 1.9199982l-61.641235 0l0 -1.9199982z" fill-rule="nonzero"/><path fill="#00495f" d="m232.01933 430.0938l0 0c0 -4.099945 53.271347 -7.4236145 118.98488 -7.4236145c65.71353 0 118.98486 3.3236694 118.98486 7.4236145l0 29.694397c0 4.099945 -53.27133 7.423584 -118.98486 7.423584c-65.71353 0 -118.98488 -3.323639 -118.98488 -7.423584z" fill-rule="evenodd"/><path fill="#000000" fill-opacity="0.0" d="m469.98907 430.0938l0 0c0 4.099945 -53.27133 7.423584 -118.98486 7.423584c-65.71353 0 -118.98488 -3.323639 -118.98488 -7.423584" fill-rule="evenodd"/><path fill="#000000" fill-opacity="0.0" d="m232.01933 430.0938l0 0c0 -4.099945 53.271347 -7.4236145 118.98488 -7.4236145c65.71353 0 118.98486 3.3236694 118.98486 7.4236145l0 29.694397c0 4.099945 -53.27133 7.423584 -118.98486 7.423584c-65.71353 0 -118.98488 -3.323639 -118.98488 -7.423584z" fill-rule="evenodd"/><path fill="#000000" fill-opacity="0.0" d="m331.05078 436.825l39.90686 0l0 24.525269l-39.90686 0l0 -24.525269z" fill-rule="nonzero"/><path fill="#ffffff" d="m332.72266 456.1328l0 -15.265625l6.78125 0q2.03125 0 3.09375 0.421875q1.0625 0.40625 1.6875 1.453125q0.640625 1.03125 0.640625 2.296875q0 1.609375 -1.046875 2.734375q-1.046875 1.109375 -3.25 1.40625q0.8125 0.390625 1.21875 0.765625q0.890625 0.8125 1.671875 2.03125l2.65625 4.15625l-2.53125 0l-2.015625 -3.171875q-0.890625 -1.375 -1.46875 -2.109375q-0.5625 -0.734375 -1.015625 -1.015625q-0.453125 -0.296875 -0.921875 -0.40625q-0.34375 -0.078125 -1.125 -0.078125l-2.34375 0l0 6.78125l-2.03125 0zm2.03125 -8.53125l4.34375 0q1.375 0 2.15625 -0.28125q0.78125 -0.296875 1.1875 -0.921875q0.40625 -0.625 0.40625 -1.359375q0 -1.09375 -0.78125 -1.78125q-0.78125 -0.703125 -2.484375 -0.703125l-4.828125 0l0 5.046875zm16.845215 8.53125l0 -13.46875l-5.03125 0l0 -1.796875l12.09375 0l0 1.796875l-5.046875 0l0 13.46875l-2.015625 0zm9.059326 0l0 -15.265625l2.015625 0l0 13.46875l7.515625 0l0 1.796875l-9.53125 0z" fill-rule="nonzero"/><path fill="#010000" fill-opacity="0.0" d="m370.95764 435.0821l0 0l0 25.593567l0 0l0 -25.593567z" fill-rule="nonzero"/><path fill="#ffffff" d="m331.05078 457.51947l39.90686 0l0 1.9200134l-39.90686 0l0 -1.9200134z" fill-rule="nonzero"/><g filter="url(#shadowFilter-p.6)"><use xlink:href="#p.6" transform="matrix(1.0 0.0 0.0 1.0 2.8284271320333003 2.8284271320333003)"/></g><defs><filter id="shadowFilter-p.6" filterUnits="userSpaceOnUse"><feGaussianBlur in="SourceAlpha" stdDeviation="1.7777777" result="blur"/><feComponentTransfer in="blur" color-interpolation-filters="sRGB"><feFuncR type="linear" slope="0" intercept="0.0"/><feFuncG type="linear" slope="0" intercept="0.0"/><feFuncB type="linear" slope="0" intercept="0.0"/><feFuncA type="linear" slope="0.4" intercept="0"/></feComponentTransfer></filter></defs><g id="p.6"><path fill="#56b2af" d="m470.26733 235.48332l24.913391 -24.913391l0 12.456696l28.818909 0l0 24.913391l-28.818909 0l0 12.45668z" fill-rule="evenodd"/><path stroke="#ffc000" stroke-width="1.3333333333333333" stroke-miterlimit="8.0" stroke-linecap="butt" d="m470.26733 235.48332l24.913391 -24.913391l0 12.456696l28.818909 0l0 24.913391l-28.818909 0l0 12.45668z" fill-rule="evenodd"/></g></g></svg>